<?xml version="1.0" encoding="UTF-8" standalone="no"?>
<svg
   height="480pt"
   viewBox="-96 0 480 480"
   width="480pt"
   version="1.1"
   id="svg9"
   sodipodi:docname="account-balance.svg"
   inkscape:version="1.1 (c68e22c387, 2021-05-23)"
   xmlns:inkscape="http://www.inkscape.org/namespaces/inkscape"
   xmlns:sodipodi="http://sodipodi.sourceforge.net/DTD/sodipodi-0.dtd"
   xmlns:xlink="http://www.w3.org/1999/xlink"
   xmlns="http://www.w3.org/2000/svg"
   xmlns:svg="http://www.w3.org/2000/svg">
  <defs
     id="defs13">
    <linearGradient
       inkscape:collect="always"
       xlink:href="#a"
       id="linearGradient867"
       x1="14.769228"
       y1="466.15384"
       x2="266.76923"
       y2="4.6153846"
       gradientUnits="userSpaceOnUse" />
  </defs>
  <sodipodi:namedview
     id="namedview11"
     pagecolor="#ffffff"
     bordercolor="#666666"
     borderopacity="1.0"
     inkscape:pageshadow="2"
     inkscape:pageopacity="0.0"
     inkscape:pagecheckerboard="0"
     inkscape:document-units="pt"
     showgrid="false"
     inkscape:zoom="0.8125"
     inkscape:cx="319.38462"
     inkscape:cy="222.15385"
     inkscape:window-width="1366"
     inkscape:window-height="705"
     inkscape:window-x="-8"
     inkscape:window-y="-8"
     inkscape:window-maximized="1"
     inkscape:current-layer="svg9" />
  <linearGradient
     id="a"
     gradientUnits="userSpaceOnUse"
     x1="-40.96"
     x2="328.96"
     y1="424.96"
     y2="55.04">
    <stop
       offset="0"
       stop-color="#41dfd0"
       id="stop2"
       style="stop-color:#4304fa;stop-opacity:1" />
    <stop
       offset="1"
       stop-color="#ee83ef"
       id="stop4"
       style="stop-color:#c63c96;stop-opacity:1" />
  </linearGradient>
  <path
     d="m 24,480 h 240 c 13.25391,0 24,-10.74609 24,-24 V 24 C 288,10.746094 277.25391,0 264,0 H 24 C 10.746094,0 0,10.746094 0,24 v 432 c 0,13.25391 10.746094,24 24,24 z M 16,24 c 0,-4.417969 3.582031,-8 8,-8 h 240 c 4.41797,0 8,3.582031 8,8 V 64 H 16 Z m 0,56 H 272 V 368 H 16 Z m 0,304 h 256 v 72 c 0,4.41797 -3.58203,8 -8,8 H 24 c -4.417969,0 -8,-3.58203 -8,-8 z M 240,164.03906 c -0.004,-7.28125 -3.3125,-14.17187 -8.99609,-18.72265 -5.6836,-4.55469 -13.12891,-6.28125 -20.23438,-4.69141 L 200,142.95312 V 112 c 0,-4.41797 -3.58203,-8 -8,-8 H 96 c -4.417969,0 -8,3.58203 -8,8 v 55.19922 l -41.6875,9.00781 c -0.273438,0.0664 -0.480469,0.23438 -0.738281,0.3125 -0.441407,0.14453 -0.875,0.32422 -1.285157,0.54297 -0.472656,0.25391 -0.917968,0.55469 -1.328124,0.89844 -1.605469,1.25 -2.613282,3.11718 -2.777344,5.14453 C 40.109375,183.39844 40.046875,183.69922 40,184 v 128 c 0,13.25391 10.746094,24 24,24 h 160 c 13.25391,0 24,-10.74609 24,-24 V 200 c -0.0195,-6.78906 -2.92969,-13.24609 -8,-17.76172 z m -40,-4.71875 14.22266,-3.08203 c 2.375,-0.53906 4.86328,0.0312 6.76562,1.54688 1.90234,1.51953 3.01172,3.82031 3.01172,6.2539 V 176 H 200 Z M 184,120 v 14.63281 C 177.17187,132.19922 171.80078,126.82813 169.36719,120 Z m -80,0 h 14.63281 c -2.43359,6.82813 -7.80468,12.19922 -14.63281,14.63281 z m 0,31.19922 c 15.69922,-3.23438 27.96484,-15.5 31.19922,-31.19922 h 17.60156 c 3.23438,15.69922 15.5,27.96484 31.19922,31.19922 V 176 h -16 c 0,-13.25391 -10.74609,-24 -24,-24 -13.25391,0 -24,10.74609 -24,24 H 104 Z M 152,176 h -16 c 0,-4.41797 3.58203,-8 8,-8 4.41797,0 8,3.58203 8,8 z m 80,96 h -32 c -8.83594,0 -16,-7.16406 -16,-16 0,-8.83594 7.16406,-16 16,-16 h 32 z m 0,-48 h -32 c -17.67188,0 -32,14.32812 -32,32 0,17.67187 14.32812,32 32,32 h 32 v 24 c 0,4.41797 -3.58203,8 -8,8 H 64 c -4.417969,0 -8,-3.58203 -8,-8 V 192 h 168 c 4.41797,0 8,3.58203 8,8 z m -33.60156,24.16016 c 2.63672,-0.52344 5.35937,0.28515 7.28125,2.16015 l 0.96093,1.19922 c 0.30079,0.44922 0.53907,0.93359 0.71875,1.44141 0.23438,0.44922 0.39063,0.9375 0.47266,1.4375 0.0977,0.53125 0.15625,1.0664 0.16797,1.60156 -0.0117,1.04687 -0.23047,2.07812 -0.64063,3.03906 -0.38671,0.98047 -0.95703,1.875 -1.67968,2.64063 -0.77735,0.70312 -1.67188,1.27343 -2.64063,1.67968 -0.96094,0.41016 -1.99219,0.62891 -3.03906,0.64063 -3.25781,0.0742 -6.20703,-1.91406 -7.35938,-4.96094 C 192.23047,258.07812 192.01172,257.04687 192,256 c 0.0117,-0.53516 0.0664,-1.07031 0.16016,-1.60156 0.0859,-0.5 0.25,-0.98438 0.48046,-1.4375 0.17579,-0.51172 0.41797,-0.9961 0.71875,-1.44141 l 0.96094,-1.19922 1.19141,-0.96094 c 0.44922,-0.30078 0.9375,-0.54296 1.44922,-0.71875 0.45312,-0.23046 0.9375,-0.39453 1.4375,-0.48046 z M 144,448 c 13.25391,0 24,-10.74609 24,-24 0,-13.25391 -10.74609,-24 -24,-24 -13.25391,0 -24,10.74609 -24,24 0,13.25391 10.74609,24 24,24 z m 0,-32 c 4.41797,0 8,3.58203 8,8 0,4.41797 -3.58203,8 -8,8 -4.41797,0 -8,-3.58203 -8,-8 0,-4.41797 3.58203,-8 8,-8 z M 168,40 c 0,4.417969 -3.58203,8 -8,8 h -32 c -4.41797,0 -8,-3.582031 -8,-8 0,-4.417969 3.58203,-8 8,-8 h 32 c 4.41797,0 8,3.582031 8,8 z m 0,0"
     fill="url(#a)"
     id="path7"
     style="mix-blend-mode:normal;fill:url(#linearGradient867);fill-opacity:1" />
</svg>
