<?xml version="1.0" encoding="UTF-8" standalone="no"?>
<svg
   viewBox="0 0 1440 320"
   version="1.1"
   id="svg4"
   sodipodi:docname="drip2.svg"
   inkscape:version="1.1 (c68e22c387, 2021-05-23)"
   xmlns:inkscape="http://www.inkscape.org/namespaces/inkscape"
   xmlns:sodipodi="http://sodipodi.sourceforge.net/DTD/sodipodi-0.dtd"
   xmlns:xlink="http://www.w3.org/1999/xlink"
   xmlns="http://www.w3.org/2000/svg"
   xmlns:svg="http://www.w3.org/2000/svg">
  <defs
     id="defs8">
    <linearGradient
       inkscape:collect="always"
       id="linearGradient859">
      <stop
         style="stop-color:#f800fa;stop-opacity:1"
         offset="0"
         id="stop855" />
      <stop
         style="stop-color:#2600af;stop-opacity:1"
         offset="1"
         id="stop857" />
    </linearGradient>
    <linearGradient
       inkscape:collect="always"
       xlink:href="#linearGradient859"
       id="linearGradient861"
       x1="707.75043"
       y1="269.48956"
       x2="726.8053"
       y2="-310.32135"
       gradientUnits="userSpaceOnUse" />
  </defs>
  <sodipodi:namedview
     id="namedview6"
     pagecolor="#ffffff"
     bordercolor="#666666"
     borderopacity="1.0"
     inkscape:pageshadow="2"
     inkscape:pageopacity="0.0"
     inkscape:pagecheckerboard="0"
     showgrid="false"
     inkscape:zoom="0.36736111"
     inkscape:cx="666.91871"
     inkscape:cy="31.304348"
     inkscape:window-width="1366"
     inkscape:window-height="715"
     inkscape:window-x="-8"
     inkscape:window-y="-8"
     inkscape:window-maximized="1"
     inkscape:current-layer="svg4" />
  <path
     fill="#0099ff"
     fill-opacity="1"
     d="m -4e-5,168 48,16 c 48,16 144,48 240,58.7 96,10.3 192,0.3 288,-26.7 96,-27 192,-69 288,-64 96,5 192.00004,59 288.00004,69.3 96,10.7 192,-21.3 240,-37.3 l 48,-16 V 8 h -48 c -48,0 -144,0 -240,0 -96,0 -192.00004,0 -288.00004,0 -96,0 -192,0 -288,0 -96,0 -192,0 -288,0 -96,0 -192,0 -240,0 h -48 z"
     id="path2-2"
     style="fill:#ffcf0e;fill-opacity:1" />
  <path
     fill="#0099ff"
     fill-opacity="1"
     d="m 0,160 48,16 c 48,16 144,48 240,58.7 96,10.3 192,0.3 288,-26.7 96,-27 192,-69 288,-64 96,5 192,59 288,69.3 96,10.7 192,-21.3 240,-37.3 l 48,-16 V 0 h -48 C 1344,0 1248,0 1152,0 1056,0 960,0 864,0 768,0 672,0 576,0 480,0 384,0 288,0 192,0 96,0 48,0 H 0 Z"
     id="path2"
     style="fill:url(#linearGradient861);fill-opacity:1" />
</svg>
