<?xml version="1.0" encoding="UTF-8" standalone="no"?>
<svg
   viewBox="0 0 421.53723 294"
   version="1.1"
   id="svg4"
   sodipodi:docname="drip.svg"
   width="421.53723"
   height="294"
   inkscape:version="1.1 (c68e22c387, 2021-05-23)"
   xmlns:inkscape="http://www.inkscape.org/namespaces/inkscape"
   xmlns:sodipodi="http://sodipodi.sourceforge.net/DTD/sodipodi-0.dtd"
   xmlns:xlink="http://www.w3.org/1999/xlink"
   xmlns="http://www.w3.org/2000/svg"
   xmlns:svg="http://www.w3.org/2000/svg">
  <defs
     id="defs8">
    <linearGradient
       inkscape:collect="always"
       id="linearGradient3447">
      <stop
         style="stop-color:#2600af;stop-opacity:1"
         offset="0"
         id="stop3443" />
      <stop
         style="stop-color:#f800fa;stop-opacity:1"
         offset="1"
         id="stop3445" />
    </linearGradient>
    <linearGradient
       inkscape:collect="always"
       xlink:href="#linearGradient3447"
       id="linearGradient4289"
       x1="694.86273"
       y1="-219.43034"
       x2="694.86273"
       y2="205.95654"
       gradientUnits="userSpaceOnUse"
       gradientTransform="translate(11.067759,-283.43085)" />
    <clipPath
       clipPathUnits="userSpaceOnUse"
       id="clipPath1444">
      <rect
         style="fill:#c63c96;fill-opacity:0.531469;stroke-width:0.963043"
         id="rect1446"
         width="437.37039"
         height="492.75586"
         x="1006.9957"
         y="-455.97647" />
    </clipPath>
    <clipPath
       clipPathUnits="userSpaceOnUse"
       id="clipPath1632">
      <rect
         style="fill:#c63c96;fill-opacity:0.531469;stroke-width:0.993339"
         id="rect1634"
         width="429.23508"
         height="556.27515"
         x="1009.3564"
         y="-504.09714" />
    </clipPath>
    <clipPath
       clipPathUnits="userSpaceOnUse"
       id="clipPath2311">
      <rect
         style="fill:#c63c96;fill-opacity:0.531469"
         id="rect2313"
         width="421.53723"
         height="353.20587"
         x="1014.1671"
         y="-318.35129" />
    </clipPath>
  </defs>
  <sodipodi:namedview
     id="namedview6"
     pagecolor="#ffffff"
     bordercolor="#666666"
     borderopacity="1.0"
     inkscape:pageshadow="2"
     inkscape:pageopacity="0.0"
     inkscape:pagecheckerboard="0"
     showgrid="false"
     inkscape:zoom="0.35355339"
     inkscape:cx="18.384776"
     inkscape:cy="1.4142136"
     inkscape:window-width="1366"
     inkscape:window-height="705"
     inkscape:window-x="-8"
     inkscape:window-y="-8"
     inkscape:window-maximized="1"
     inkscape:current-layer="layer1" />
  <g
     inkscape:groupmode="layer"
     id="layer2"
     inkscape:label="Layer 2"
     transform="translate(-1014.1671,283.43085)"
     style="display:inline" />
  <g
     inkscape:groupmode="layer"
     id="layer1"
     inkscape:label="Layer 1"
     transform="translate(-1014.1671,283.43085)"
     style="display:inline">
    <g
       id="g2004"
       clip-path="url(#clipPath2311)">
      <path
         fill="#0099ff"
         fill-opacity="1"
         d="m 11.067769,10.569149 13.299999,-37.3 c 13.4,-37.7 39.7,-111.699999 66.700001,-154.699999 26.700001,-43 53.000001,-53 80.000001,-26.7 26.7,26.7 53,90.7 80,122.699999 26.7,32 53,32 80,32 26.7,0 53,0 80,-5.3 26.7,-5.7 53,-15.7 80,-32 26.7,-15.699999 53,-37.699999 80,-47.999999 26.7,-10.7 53,-10.7 80,16 26.7,26.299999 53,80.299999 80,85.299999 26.7,5 53,-37 80,-42.7 26.7,-5.3 53,26.7 80,5.4 26.7,-21.7 53,-95.699999 80,-133.399999 26.69998,-37.3 52.99993,-37.3 79.99993,-16 26.7,21.7 53,63.7 80,80 26.7,15.7 53,5.7 80,16 26.7,10.7 53,42.699999 80,42.699999 26.7,0 53,-31.999999 80,-37.299999 26.7,-5.7 53,16.3 67,26.599999 l 13,10.7 V -277.43085 h -13.3 c -13.4,0 -39.7,0 -66.7,0 -26.7,0 -53,0 -80,0 -26.7,0 -53,0 -80,0 -26.7,0 -53,0 -80,0 -26.7,0 -53,0 -80,0 -26.7,0 -52.99995,0 -79.99993,0 -26.7,0 -53,0 -80,0 -26.7,0 -53,0 -80,0 -26.7,0 -53,0 -80,0 -26.7,0 -53,0 -80,0 -26.7,0 -53,0 -80,0 -26.7,0 -53,0 -80,0 -26.7,0 -53,0 -80,0 -26.7,0 -53,0 -80,0 -26.7,0 -53,0 -80,0 -26.7,0 -53,0 -80,0 -26.7,0 -53,0 -80.000001,0 -26.700001,0 -53.000001,0 -67.000001,0 H 11.067769 Z"
         id="path2-4"
         style="display:inline;fill:#ffbc08;fill-opacity:1"
         clip-path="url(#clipPath1632)" />
      <path
         fill="#0099ff"
         fill-opacity="1"
         d="M 11.067759,4.5691491 24.367758,-32.730851 c 13.4,-37.7 39.7,-111.699999 66.700001,-154.699999 26.700001,-43 53.000001,-53 80.000001,-26.7 26.7,26.7 53,90.7 80,122.699999 26.7,32 53,32 80,32 26.7,0 53,0 80,-5.3 26.7,-5.7 53,-15.7 80,-32 26.7,-15.699999 53,-37.699999 80,-47.999999 26.7,-10.7 53,-10.7 80,16 26.7,26.3 53,80.299999 80,85.299999 26.7,5 53,-37 80,-42.7 26.7,-5.3 53,26.7 80,5.4 26.7,-21.699999 53,-95.699999 80,-133.399999 26.69999,-37.3 52.99994,-37.3 79.99994,-16 26.7,21.7 53,63.7 80,80 26.7,15.7 53,5.7 80,16 26.7,10.7 53,42.699999 80,42.699999 26.7,0 53,-31.999999 80,-37.299999 26.7,-5.7 53,16.3 67,26.6 l 13,10.699999 V -283.43085 h -13.3 c -13.4,0 -39.7,0 -66.7,0 -26.7,0 -53,0 -80,0 -26.7,0 -53,0 -80,0 -26.7,0 -53,0 -80,0 -26.7,0 -53,0 -80,0 -26.7,0 -52.99995,0 -79.99994,0 -26.7,0 -53,0 -80,0 -26.7,0 -53,0 -80,0 -26.7,0 -53,0 -80,0 -26.7,0 -53,0 -80,0 -26.7,0 -53,0 -80,0 -26.7,0 -53,0 -80,0 -26.7,0 -53,0 -80,0 -26.7,0 -53,0 -80,0 -26.7,0 -53,0 -80,0 -26.7,0 -53,0 -80,0 -26.7,0 -53,0 -80.000001,0 -26.700001,0 -53.000001,0 -67.000001,0 H 11.067759 Z"
         id="path2"
         style="fill:url(#linearGradient4289);fill-opacity:1"
         clip-path="url(#clipPath1444)" />
    </g>
  </g>
</svg>
