<?xml version="1.0" encoding="UTF-8" standalone="no"?>
<!-- Created with Inkscape (http://www.inkscape.org/) -->

<svg
   width="1737.9995"
   height="170"
   viewBox="0 0 1737.9995 170"
   version="1.1"
   id="svg5"
   inkscape:version="1.1.1 (3bf5ae0d25, 2021-09-20)"
   sodipodi:docname="EF_LOGO_COMPLETE.svg"
   inkscape:export-filename="C:\xampp\htdocs\p13_ef\assets\img\logo.png"
   inkscape:export-xdpi="300"
   inkscape:export-ydpi="300"
   xmlns:inkscape="http://www.inkscape.org/namespaces/inkscape"
   xmlns:sodipodi="http://sodipodi.sourceforge.net/DTD/sodipodi-0.dtd"
   xmlns="http://www.w3.org/2000/svg"
   xmlns:svg="http://www.w3.org/2000/svg">
  <sodipodi:namedview
     id="namedview7"
     pagecolor="#ffffff"
     bordercolor="#666666"
     borderopacity="1.0"
     inkscape:pageshadow="2"
     inkscape:pageopacity="0.0"
     inkscape:pagecheckerboard="0"
     inkscape:document-units="px"
     showgrid="false"
     inkscape:zoom="0.3653385"
     inkscape:cx="859.4769"
     inkscape:cy="-171.07422"
     inkscape:window-width="1366"
     inkscape:window-height="715"
     inkscape:window-x="-8"
     inkscape:window-y="-8"
     inkscape:window-maximized="1"
     inkscape:current-layer="layer1" />
  <defs
     id="defs2" />
  <g
     inkscape:label="Layer 1"
     inkscape:groupmode="layer"
     id="layer1"
     transform="translate(-143.06114,-451.06057)">
    <g
       aria-label="EQUI"
       id="text3752"
       style="font-size:201.143px;line-height:1.25;stroke-width:2.09524">
      <path
         d="m 471.57437,486.61716 v 36.80917 h 71.20462 v 25.54516 h -71.20462 v 34.5966 h 80.25606 v 25.34402 H 443.61549 V 461.67543 h 108.21494 v 24.94173 z"
         style="font-family:Geometos;-inkscape-font-specification:Geometos;fill:#ffa800"
         id="path829" />
      <path
         d="m 722.19792,583.1658 v 25.94745 h -73.21606 q -20.51658,0 -35.60231,-5.83314 -14.88458,-6.03429 -24.74059,-16.09145 -9.85601,-10.25829 -14.68344,-23.93601 -4.62629,-13.67773 -4.62629,-29.16574 0,-15.48801 5.83315,-29.16573 6.03429,-13.67773 16.09144,-23.73488 10.25829,-10.25829 23.73488,-16.09144 13.67772,-6.03429 29.16573,-6.03429 15.48801,0 29.16574,6.03429 13.67772,5.83315 23.73487,16.09144 10.2583,10.05715 16.09144,23.73488 6.03429,13.67772 6.03429,29.16573 0,6.63772 -1.60914,13.67773 -1.408,7.04 -4.82743,13.67772 -3.41943,6.63772 -8.8503,12.26972 -5.22971,5.63201 -13.07429,9.45372 z M 597.28811,534.08691 q 0,9.65487 3.62058,18.30401 3.82171,8.64915 10.05715,15.28687 6.43657,6.43658 14.88458,10.2583 8.64915,3.82171 18.30401,3.82171 9.65487,0 18.10287,-3.82171 8.64915,-3.82172 14.88458,-10.2583 6.43658,-6.63772 10.05715,-15.28687 3.82172,-8.64914 3.82172,-18.30401 0,-9.65486 -3.82172,-18.30401 -3.62057,-8.85029 -10.05715,-15.28687 -6.23543,-6.43658 -14.88458,-10.25829 -8.448,-3.82172 -18.10287,-3.82172 -9.65486,0 -18.30401,3.82172 -8.44801,3.82171 -14.88458,10.25829 -6.23544,6.43658 -10.05715,15.28687 -3.62058,8.64915 -3.62058,18.30401 z"
         style="font-family:Geometos;-inkscape-font-specification:Geometos;fill:#ffa800"
         id="path831" />
      <path
         d="m 806.27561,611.52697 q -14.28115,0 -25.94745,-4.42515 -11.66629,-4.42514 -19.91315,-12.47086 -8.24687,-8.04572 -12.87315,-19.51088 -4.42515,-11.46515 -4.42515,-25.54516 v -87.69835 h 28.16002 v 87.69835 q 0,11.06287 3.62057,18.30402 3.62058,7.24114 8.8503,11.46515 5.43086,4.224 11.46515,5.83314 6.23543,1.60915 11.06286,1.60915 4.82743,0 10.86172,-1.60915 6.23544,-1.60914 11.46516,-5.83314 5.43086,-4.22401 9.05143,-11.46515 3.62058,-7.24115 3.62058,-18.30402 v -87.69835 h 28.16002 v 87.69835 q 0,14.08001 -4.42515,25.54516 -4.42515,11.46516 -12.67201,19.51088 -8.24686,8.04572 -19.91316,12.47086 -11.66629,4.42515 -26.14859,4.42515 z"
         style="font-family:Geometos;-inkscape-font-specification:Geometos;fill:#ffa800"
         id="path833" />
      <path
         d="M 933.79993,608.91211 H 905.6399 V 461.87657 h 28.16003 z"
         style="font-family:Geometos;-inkscape-font-specification:Geometos;fill:#ffa800"
         id="path835" />
    </g>
    <g
       inkscape:label="Image"
       id="g8"
       transform="matrix(3.2630971,0,0,3.2630971,110.64746,368.42379)"
       style="fill:#ff0300;fill-opacity:1">
      <path
         id="rect849"
         style="fill:#ff0300;fill-opacity:1;stroke:#ffffff;stroke-width:0"
         d="m 33.406865,28.933588 h 64.63015 C 93.550614,36.266263 88.850677,43.545555 78.982709,49.532839 H 14.352559 C 15.66294,42.666422 22.488348,35.800005 33.406865,28.933588 Z"
         sodipodi:nodetypes="ccccc" />
      <path
         id="rect849-6"
         style="fill:#ff0300;fill-opacity:1;stroke:#ffffff;stroke-width:0"
         d="M 33.27812,53.652689 H 97.90827 C 93.421869,60.985364 88.721932,68.264656 78.853964,74.25194 H 14.223813 C 15.534194,67.385523 22.359602,60.519106 33.27812,53.652689 Z"
         sodipodi:nodetypes="ccccc" />
    </g>
    <g
       aria-label="FINANCE"
       transform="scale(0.97860755,1.0218601)"
       id="text20678"
       style="font-size:205.54px;line-height:1.25;fill:#ff0300;stroke-width:1.02186">
      <path
         d="m 1088.5396,478.8221 0.2056,-26.92574 H 985.35856 v 143.87799 h 32.47534 v -54.4681 h 64.9506 v -27.13127 h -64.9506 V 478.8221 Z"
         style="font-weight:600;font-family:Trueno;-inkscape-font-specification:'Trueno Semi-Bold'"
         id="path838" />
      <path
         d="M 1140.13,595.77435 V 451.89636 h -32.4753 v 143.87799 z"
         style="font-weight:600;font-family:Trueno;-inkscape-font-specification:'Trueno Semi-Bold'"
         id="path840" />
      <path
         d="M 1302.301,595.77435 V 451.89636 h -30.831 v 92.49299 l -69.8836,-92.49299 h -29.5977 v 143.87799 h 31.0365 V 503.4869 l 69.6781,92.28745 z"
         style="font-weight:600;font-family:Trueno;-inkscape-font-specification:'Trueno Semi-Bold'"
         id="path842" />
      <path
         d="m 1428.9133,567.82091 11.3047,27.95344 h 34.7363 l -61.4565,-143.87799 h -33.503 l -62.4842,143.87799 h 33.5031 l 11.3047,-27.95344 z m -10.4825,-26.10358 h -45.4244 l 22.815,-55.90687 z"
         style="font-weight:600;font-family:Trueno;-inkscape-font-specification:'Trueno Semi-Bold'"
         id="path844" />
      <path
         d="M 1620.2708,595.77435 V 451.89636 h -30.831 v 92.49299 l -69.8836,-92.49299 h -29.5978 v 143.87799 h 31.0366 V 503.4869 l 69.678,92.28745 z"
         style="font-weight:600;font-family:Trueno;-inkscape-font-specification:'Trueno Semi-Bold'"
         id="path846" />
      <path
         d="m 1718.313,450.86866 c -43.5744,0 -76.6664,31.24208 -76.6664,72.76116 0,41.72461 32.4753,73.58331 75.4332,73.58331 20.9651,0 42.9579,-10.07146 58.1678,-25.6925 l -19.1152,-20.75954 c -10.277,10.277 -24.4593,16.85428 -37.4083,16.85428 -24.6648,0 -43.78,-19.32076 -43.78,-44.39663 0,-25.07588 19.1152,-44.1911 43.78,-44.1911 13.3601,0 27.5424,7.39944 37.4083,18.70414 l 18.9097,-23.02048 c -14.1823,-14.59334 -35.9695,-23.84264 -56.7291,-23.84264 z"
         style="font-weight:600;font-family:Trueno;-inkscape-font-specification:'Trueno Semi-Bold'"
         id="path848" />
      <path
         d="M 1904.1209,478.8221 V 451.89636 H 1794.568 v 143.87799 h 111.8138 v -26.92574 h -79.3384 v -31.8587 h 69.4725 v -26.92573 h -69.4725 V 478.8221 Z"
         style="font-weight:600;font-family:Trueno;-inkscape-font-specification:'Trueno Semi-Bold'"
         id="path850" />
    </g>
  </g>
</svg>
