<?xml version="1.0" encoding="UTF-8" standalone="no"?>
<svg
   version="1.0"
   width="591.000000pt"
   height="591.000000pt"
   viewBox="0 0 591.000000 591.000000"
   preserveAspectRatio="xMidYMid meet"
   id="svg12"
   sodipodi:docname="gracure-logo2.svg"
   inkscape:version="1.1 (c68e22c387, 2021-05-23)"
   xmlns:inkscape="http://www.inkscape.org/namespaces/inkscape"
   xmlns:sodipodi="http://sodipodi.sourceforge.net/DTD/sodipodi-0.dtd"
   xmlns="http://www.w3.org/2000/svg"
   xmlns:svg="http://www.w3.org/2000/svg">
  <defs
     id="defs16" />
  <sodipodi:namedview
     id="namedview14"
     pagecolor="#ffffff"
     bordercolor="#666666"
     borderopacity="1.0"
     inkscape:pageshadow="2"
     inkscape:pageopacity="0.0"
     inkscape:pagecheckerboard="0"
     inkscape:document-units="pt"
     showgrid="false"
     inkscape:zoom="0.65989848"
     inkscape:cx="393.24231"
     inkscape:cy="394.75769"
     inkscape:window-width="1366"
     inkscape:window-height="705"
     inkscape:window-x="-8"
     inkscape:window-y="-8"
     inkscape:window-maximized="1"
     inkscape:current-layer="g10" />
  <g
     transform="translate(0.000000,591.000000) scale(0.100000,-0.100000)"
     fill="#000000"
     stroke="none"
     id="g10">
    <path
       d="M2125 4731 c-33 -10 -78 -27 -100 -38 -24 -13 -341 -323 -801 -785 -698 -700 -763 -768 -787 -823 -14 -33 -31 -87 -38 -121 -11 -52 -10 -70 5 -130 10 -38 30 -91 46 -119 20 -34 253 -272 745 -760 395 -390 736 -722 758 -738 82 -56 194 -76 286 -52 115 30 143 50 377 286 l223 223 -281 278 c-155 153 -284 278 -287 278 -2 0 -28 -23 -58 -51 l-54 -51 -395 393 -394 394 209 210 c115 115 306 309 425 430 l215 220 58 -57 58 -58 283 283 282 282 -227 227 c-132 131 -245 234 -269 246 -49 25 -151 52 -190 51 -16 0 -56 -8 -89 -18z"
       id="path2"
       style="fill:#c63c96;fill-opacity:1" />
    <path
       d="M3655 4732 c-33 -10 -76 -26 -95 -36 -19 -10 -137 -120 -263 -244 l-227 -227 277 -277 c153 -153 282 -278 287 -278 5 0 33 23 62 50 l54 51 47 -46 47 -46 283 283 283 283 -203 203 c-111 112 -222 216 -247 233 -89 60 -209 80 -305 51z"
       id="path4"
       style="fill:#c63c96;fill-opacity:1" />
    <path
       d="M2700 3855 l-285 -285 580 -580 580 -580 153 153 c181 180 216 228 243 338 19 72 20 89 9 143 -26 137 -22 132 -523 634 -254 254 -464 462 -467 462 -3 0 -133 -128 -290 -285z"
       id="path6"
       style="fill:#c63c96;fill-opacity:1" />
    <path
       d="M4715 3370 l-280 -280 52 -52 51 -53 -422 -429 -422 -428 -677 676 c-373 372 -681 676 -685 676 -15 0 -320 -315 -346 -358 -15 -24 -37 -80 -48 -124 -17 -70 -19 -88 -9 -142 28 -145 4 -118 796 -903 443 -438 743 -728 772 -745 25 -15 78 -34 117 -44 60 -15 79 -15 131 -5 143 30 104 -5 932 824 813 815 792 791 829 930 16 58 17 74 5 129 -26 129 -45 155 -279 391 -119 119 -221 217 -227 217 -5 0 -136 -126 -290 -280z"
       id="path8"
       style="fill:#c63c96;fill-opacity:1" />
  </g>
</svg>
