<?xml version="1.0" encoding="UTF-8" standalone="no"?>
<svg
   version="1.0"
   width="594.2738pt"
   height="152.02399pt"
   viewBox="0 0 594.2738 152.02399"
   preserveAspectRatio="xMidYMid meet"
   id="svg12"
   sodipodi:docname="gracure-logo-white.svg"
   inkscape:version="1.1 (c68e22c387, 2021-05-23)"
   xmlns:inkscape="http://www.inkscape.org/namespaces/inkscape"
   xmlns:sodipodi="http://sodipodi.sourceforge.net/DTD/sodipodi-0.dtd"
   xmlns="http://www.w3.org/2000/svg"
   xmlns:svg="http://www.w3.org/2000/svg">
  <defs
     id="defs16" />
  <sodipodi:namedview
     id="namedview14"
     pagecolor="#ffffff"
     bordercolor="#666666"
     borderopacity="1.0"
     inkscape:pageshadow="2"
     inkscape:pageopacity="0.0"
     inkscape:pagecheckerboard="0"
     inkscape:document-units="pt"
     showgrid="false"
     inkscape:zoom="0.93323741"
     inkscape:cx="365.93047"
     inkscape:cy="134.47811"
     inkscape:window-width="1366"
     inkscape:window-height="705"
     inkscape:window-x="-8"
     inkscape:window-y="-8"
     inkscape:window-maximized="1"
     inkscape:current-layer="g10"
     showguides="true"
     inkscape:guide-bbox="true"
     fit-margin-top="0"
     fit-margin-left="0"
     fit-margin-right="0"
     fit-margin-bottom="0" />
  <g
     transform="matrix(0.1,0,0,-0.1,-39.16198,371.06488)"
     fill="#000000"
     stroke="none"
     id="g10">
    <path
       d="m 1124.2182,3703.0298 c -13.9472,-4.2265 -32.9661,-11.4114 -42.2642,-16.0604 -10.1434,-5.4944 -144.12072,-136.5132 -338.5358,-331.7736 -295.00375,-295.8491 -322.47545,-324.5886 -332.61885,-347.834 -5.91697,-13.9471 -13.10187,-36.7697 -16.06037,-51.1396 -4.64906,-21.9774 -4.22641,-29.5848 2.11321,-54.9433 4.22641,-16.0604 12.67924,-38.4605 19.44151,-50.2944 8.45283,-14.3698 106.92829,-114.9584 314.8679,-321.2075 166.94338,-164.8301 311.0641,-305.1472 320.3622,-311.9094 34.6566,-23.6679 81.9925,-32.1208 120.8755,-21.9773 48.6038,12.6792 60.4377,21.132 159.3358,120.8754 l 94.2491,94.2491 -118.7623,117.4943 c -65.5094,64.6642 -120.0302,117.4944 -121.2981,117.4944 -0.8453,0 -11.8339,-9.7208 -24.5132,-21.5548 l -22.8226,-21.5547 -166.94341,166.0981 -166.52074,166.5207 88.33207,88.7548 c 48.60378,48.6037 129.32828,130.5962 179.62268,181.7358 l 90.8679,92.9812 24.5132,-24.0907 24.5132,-24.5132 119.6075,119.6076 119.1849,119.1848 -95.9396,95.9397 c -55.7887,55.366 -103.5471,98.8981 -113.6906,103.9698 -20.7094,10.566 -63.8188,21.9773 -80.3018,21.5548 -6.7623,0 -23.668,-3.3812 -37.6151,-7.6076 z"
       id="path2"
       style="fill:#ffffff;fill-opacity:1;stroke-width:0.422642"
       inkscape:export-filename="C:\xampp\htdocs\p12_gracure\assets\img\gracure-logo.png"
       inkscape:export-xdpi="161.53084"
       inkscape:export-ydpi="161.53084" />
    <path
       d="m 1770.8596,3703.4524 c -13.9472,-4.2265 -32.1207,-10.9887 -40.151,-15.2151 -8.03,-4.2264 -57.9018,-50.7169 -111.1547,-103.1245 l -95.9395,-95.9397 117.0716,-117.0717 c 64.6642,-64.6641 119.185,-117.4943 121.2982,-117.4943 2.1131,0 13.9471,9.7208 26.2038,21.1321 l 22.8226,21.5548 19.8641,-19.4415 19.8642,-19.4416 119.6076,119.6076 119.6074,119.6075 -85.7962,85.7962 c -46.9131,47.3359 -93.8264,91.2906 -104.3925,98.4755 -37.615,25.3585 -88.332,33.8113 -128.9056,21.5547 z"
       id="path4"
       style="fill:#ffffff;fill-opacity:1;stroke-width:0.422642"
       inkscape:export-filename="C:\xampp\htdocs\p12_gracure\assets\img\gracure-logo.png"
       inkscape:export-xdpi="161.53084"
       inkscape:export-ydpi="161.53084" />
    <path
       d="m 1367.237,3332.7958 -120.4529,-120.4528 245.1322,-245.1321 245.132,-245.132 64.6641,64.6641 c 76.4982,76.0754 91.2905,96.3622 102.702,142.8528 8.03,30.4303 8.4527,37.6151 3.8037,60.4378 -10.9887,57.9019 -9.298,55.7886 -221.0415,267.9547 -107.351,107.3509 -196.1056,195.2603 -197.3736,195.2603 -1.2679,0 -56.2113,-54.0981 -122.566,-120.4528 z"
       id="path6"
       style="fill:#ffffff;fill-opacity:1;stroke-width:0.422642"
       inkscape:export-filename="C:\xampp\htdocs\p12_gracure\assets\img\gracure-logo.png"
       inkscape:export-xdpi="161.53084"
       inkscape:export-ydpi="161.53084" />
    <path
       d="m 2218.8597,3127.8147 -118.3397,-118.3396 21.9773,-21.9774 21.5547,-22.3999 -178.3547,-181.3132 -178.3546,-180.8906 -286.1284,285.7056 c -157.6452,157.2226 -287.8188,285.7057 -289.5094,285.7057 -6.3396,0 -135.2452,-133.1321 -146.2339,-151.3057 -6.3396,-10.1434 -15.6377,-33.8113 -20.2868,-52.4075 -7.1849,-29.585 -8.0302,-37.1924 -3.8038,-60.0151 11.834,-61.283 1.6906,-49.8717 336.4226,-381.6452 187.2303,-185.117 314.0226,-307.683 326.2792,-314.8679 10.5661,-6.3397 32.9661,-14.3699 49.4491,-18.5962 25.3585,-6.3397 33.3887,-6.3397 55.366,-2.1133 60.4378,12.6792 43.9548,-2.1132 393.9019,348.2566 343.6075,344.4528 334.7321,334.3093 350.3697,393.0565 6.7623,24.5133 7.185,31.2756 2.1133,54.5208 -10.9886,54.5208 -19.0189,65.5094 -117.917,165.2529 -50.2943,50.2942 -93.4038,91.7132 -95.9396,91.7132 -2.1132,0 -57.4792,-53.2529 -122.5659,-118.3397 z"
       id="path8"
       style="fill:#ffffff;fill-opacity:1;stroke-width:0.422642"
       inkscape:export-filename="C:\xampp\htdocs\p12_gracure\assets\img\gracure-logo.png"
       inkscape:export-xdpi="161.53084"
       inkscape:export-ydpi="161.53084" />
    <g
       aria-label="GRACURE"
       transform="scale(1,-1)"
       id="text2945"
       style="font-weight:bold;font-size:710.58px;line-height:1.25;-inkscape-font-specification:'sans-serif Bold';stroke-width:17.7645;fill:#ffffff;fill-opacity:1">
      <path
         d="m 3052.9367,-3304.5103 q -12.1437,-52.3914 -59.3307,-73.2092 -26.3692,-11.4498 -58.6367,-11.4498 -61.7594,0 -101.6602,46.84 -39.5537,46.4931 -39.5537,140.173 0,94.3739 43.0234,133.5808 43.0234,39.2068 97.8435,39.2068 53.7793,0 88.1286,-30.8797 34.3493,-31.2267 42.3295,-81.5363 H 2946.766 v -85.3529 h 213.0352 v 274.4477 h -70.7804 l -10.7558,-63.8412 q -30.8797,36.4311 -55.5141,51.3505 -42.3295,26.0222 -104.0889,26.0222 -101.6601,0 -166.5422,-70.4335 -67.6577,-70.7804 -67.6577,-193.6053 0,-124.2127 68.3517,-199.1567 68.3516,-74.9439 180.7676,-74.9439 97.4966,0 156.4803,49.6156 59.3306,49.2688 68.0047,123.1719 z m -119.7022,-172.7875 z"
         style="font-family:Helvetica;-inkscape-font-specification:'Helvetica Bold';fill:#ffffff;fill-opacity:1"
         id="path119" />
      <path
         d="m 3368.6729,-3375.2908 v 137.3974 h 121.0901 q 36.0841,0 54.1262,-8.3272 31.9206,-14.5724 31.9206,-57.5958 0,-46.493 -30.8797,-62.4533 -17.3482,-9.0211 -52.0445,-9.0211 z m 146.4184,-88.8225 q 53.7792,1.0409 82.5771,13.1846 29.1449,12.1437 49.2688,35.7372 16.6542,19.4299 26.3691,43.0234 9.715,23.5935 9.715,53.7793 0,36.4311 -18.389,71.8213 -18.3891,35.0432 -60.7185,49.6157 35.3902,14.2255 49.9626,40.5946 14.9194,26.0223 14.9194,79.8015 v 34.3493 q 0,35.0433 2.7757,47.5339 4.1636,19.7769 19.4299,29.1449 v 12.8377 H 3573.381 q -4.8575,-17.0012 -6.9392,-27.4101 -4.1636,-21.5117 -4.5106,-44.0643 l -0.6939,-47.5339 q -0.6939,-48.9218 -18.042,-65.229 -17.0012,-16.3073 -64.1882,-16.3073 h -110.3342 v 200.5446 h -104.4358 v -511.4234 z"
         style="font-family:Helvetica;-inkscape-font-specification:'Helvetica Bold';fill:#ffffff;fill-opacity:1"
         id="path121" />
      <path
         d="m 3914.7926,-3145.9483 h 129.7641 l -63.8412,-201.2385 z m 6.5923,-318.165 h 120.7431 l 181.1146,511.4234 H 4107.357 l -32.9615,-105.1298 h -188.4008 l -35.3902,105.1298 h -111.7221 z m 59.6776,0 z"
         style="font-family:Helvetica;-inkscape-font-specification:'Helvetica Bold';fill:#ffffff;fill-opacity:1"
         id="path123" />
      <path
         d="m 4265.919,-3204.238 q 0,-133.9277 71.8213,-206.443 62.4533,-63.1472 158.909,-63.1472 129.0702,0 188.7478,84.6589 32.9615,47.5339 35.3903,95.4148 h -106.8646 q -10.4089,-36.778 -26.7162,-55.514 -29.1448,-33.3085 -86.3937,-33.3085 -58.2898,0 -91.9452,47.187 -33.6554,46.84 -33.6554,132.8868 0,86.0468 35.3902,129.0702 35.7372,42.6764 90.5573,42.6764 56.208,0 85.6999,-36.7781 16.3072,-19.7768 27.0631,-59.3306 h 105.8237 q -13.8785,83.618 -71.1274,136.0094 -56.9019,52.3914 -146.0714,52.3914 -110.3342,0 -173.4815,-70.7804 -63.1472,-71.1274 -63.1472,-194.9931 z m 227.6077,-275.4886 z"
         style="font-family:Helvetica;-inkscape-font-specification:'Helvetica Bold';fill:#ffffff;fill-opacity:1"
         id="path125" />
      <path
         d="m 4801.2827,-3464.1133 h 108.5994 v 314.3484 q 0,52.7384 12.4907,77.0258 19.4299,43.0234 84.6589,43.0234 64.8821,0 84.312,-43.0234 12.4907,-24.2874 12.4907,-77.0258 v -314.3484 h 108.5993 v 314.3484 q 0,81.5363 -25.3282,126.9885 -47.187,83.271 -180.0738,83.271 -132.8868,0 -180.4207,-83.271 -25.3283,-45.4522 -25.3283,-126.9885 z m 205.749,0 z"
         style="font-family:Helvetica;-inkscape-font-specification:'Helvetica Bold';fill:#ffffff;fill-opacity:1"
         id="path127" />
      <path
         d="m 5421.3055,-3375.2908 v 137.3974 h 121.09 q 36.0842,0 54.1262,-8.3272 31.9206,-14.5724 31.9206,-57.5958 0,-46.493 -30.8797,-62.4533 -17.3481,-9.0211 -52.0444,-9.0211 z m 146.4183,-88.8225 q 53.7793,1.0409 82.5772,13.1846 29.1449,12.1437 49.2687,35.7372 16.6542,19.4299 26.3692,43.0234 9.715,23.5935 9.715,53.7793 0,36.4311 -18.3891,71.8213 -18.389,35.0432 -60.7185,49.6157 35.3902,14.2255 49.9627,40.5946 14.9194,26.0223 14.9194,79.8015 v 34.3493 q 0,35.0433 2.7757,47.5339 4.1635,19.7769 19.4299,29.1449 v 12.8377 h -117.6204 q -4.8575,-17.0012 -6.9393,-27.4101 -4.1635,-21.5117 -4.5105,-44.0643 l -0.6939,-47.5339 q -0.6939,-48.9218 -18.0421,-65.229 -17.0012,-16.3073 -64.1881,-16.3073 h -110.3342 v 200.5446 h -104.4359 v -511.4234 z"
         style="font-family:Helvetica;-inkscape-font-specification:'Helvetica Bold';fill:#ffffff;fill-opacity:1"
         id="path129" />
      <path
         d="m 6205.7887,-3373.5559 h -270.6311 v 108.5993 h 248.4254 v 88.8226 h -248.4254 v 131.4989 h 283.1217 v 91.9452 h -387.5575 v -511.4234 h 375.0669 z m -184.9313,-90.5574 z"
         style="font-family:Helvetica;-inkscape-font-specification:'Helvetica Bold';fill:#ffffff;fill-opacity:1"
         id="path131" />
    </g>
    <g
       aria-label="PHARMACEUTICALS LTD."
       transform="scale(1,-1)"
       id="text22706"
       style="font-size:327.575px;line-height:1.25;font-family:'Quire Sans';-inkscape-font-specification:'Quire Sans';fill:#ffffff;stroke-width:8.18942;fill-opacity:1">
      <g
         aria-label="PHARMACEUTICALS LTD."
         id="text3478"
         style="font-size:323.534px;font-family:sans-serif;fill:#ffffff;stroke-width:66.2389;fill-opacity:1">
        <path
           d="m 2688.4606,-2803.3344 h 73.4422 q 17.7944,0 32.677,3.8824 15.2061,3.5589 26.2062,11.6472 11.0002,8.0884 17.1473,21.3533 6.1472,12.9413 6.1472,31.7063 0,35.9123 -23.618,55.0008 -23.2945,19.0885 -66.648,19.0885 h -25.8827 v 83.7953 h -39.4712 z m 39.4712,35.2652 v 72.1481 h 24.5885 q 22.6474,0 36.2358,-9.059 13.912,-9.0589 13.912,-29.4416 0,-18.1179 -13.2649,-25.8827 -13.2649,-7.7648 -35.2652,-7.7648 z"
           style="font-weight:600;font-family:'Quire Sans';-inkscape-font-specification:'Quire Sans Semi-Bold';fill:#ffffff;fill-opacity:1"
           id="path13734" />
        <path
           d="m 2881.6098,-2576.8606 v -226.4738 h 39.1476 v 94.4719 h 110.9722 v -94.4719 h 39.1476 v 226.4738 h -39.1476 v -98.3543 h -110.9722 v 98.3543 z"
           style="font-weight:600;font-family:'Quire Sans';-inkscape-font-specification:'Quire Sans Semi-Bold';fill:#ffffff;fill-opacity:1"
           id="path13736" />
        <path
           d="m 3179.2605,-2803.3344 40.7653,-1.6177 87.0306,228.0915 -41.7358,2.2647 -24.2651,-66.3244 h -81.8541 l -22.6474,64.0597 h -42.3829 z m 49.8243,128.7665 -16.5003,-45.6183 -12.9413,-41.4123 -12.9414,41.0888 -15.8532,45.9418 z"
           style="font-weight:600;font-family:'Quire Sans';-inkscape-font-specification:'Quire Sans Semi-Bold';fill:#ffffff;fill-opacity:1"
           id="path13738" />
        <path
           d="m 3330.0273,-2576.8606 v -226.4738 h 72.148 q 41.0889,0 62.1186,16.8238 21.3532,16.5002 21.3532,48.8536 0,23.2945 -11.6472,38.177 -11.3237,14.8826 -28.7945,23.2945 l 65.0303,99.3249 -44.6477,2.9118 -57.5891,-90.5895 h -38.824 v 87.6777 z m 39.1476,-121.9723 h 47.5595 q 11.6472,-4.206 19.412,-12.6178 8.0884,-8.4119 8.0884,-23.9416 0,-17.4708 -12.6179,-24.9121 -12.2943,-7.7648 -34.6181,-7.7648 h -27.8239 z"
           style="font-weight:600;font-family:'Quire Sans';-inkscape-font-specification:'Quire Sans Semi-Bold';fill:#ffffff;fill-opacity:1"
           id="path13740" />
        <path
           d="m 3535.7943,-2803.3344 43.3535,-1.2941 40.1182,94.7954 q 6.4707,14.8826 11.9708,29.7652 5.5001,14.559 11.6472,29.4416 l 22.9709,-54.6773 q 11.0002,-24.5886 21.6768,-48.8536 10.6766,-24.5886 21.3532,-49.1772 h 41.7359 l 8.0884,226.4738 h -39.7947 l -1.2941,-100.2955 q -0.3236,-16.8238 0,-33.324 0.647,-16.5003 0.3235,-33.0005 -15.5296,35.2652 -30.4122,70.5304 -14.559,34.9417 -29.4416,70.2069 l -31.0593,1.6177 q -14.8825,-36.8829 -29.7651,-72.7952 -14.559,-35.9123 -30.0886,-72.7951 0,16.5002 0,33.324 0.3235,16.5002 0.3235,33.324 l -1.6177,103.2073 h -37.2064 q 1.9412,-57.2655 3.5589,-113.2369 1.9412,-55.9714 3.5589,-113.2369 z"
           style="font-weight:600;font-family:'Quire Sans';-inkscape-font-specification:'Quire Sans Semi-Bold';fill:#ffffff;fill-opacity:1"
           id="path13742" />
        <path
           d="m 3863.5336,-2803.3344 40.7653,-1.6177 87.0306,228.0915 -41.7359,2.2647 -24.265,-66.3244 h -81.8541 l -22.6474,64.0597 h -42.383 z m 49.8242,128.7665 -16.5002,-45.6183 -12.9414,-41.4123 -12.9413,41.0888 -15.8532,45.9418 z"
           style="font-weight:600;font-family:'Quire Sans';-inkscape-font-specification:'Quire Sans Semi-Bold';fill:#ffffff;fill-opacity:1"
           id="path13744" />
        <path
           d="m 4125.2725,-2806.5697 q 19.412,0 35.5887,2.9118 16.5003,2.9118 30.0887,7.4413 l -9.3825,34.9416 q -11.3237,-3.5588 -24.5886,-6.4707 -13.2649,-2.9118 -27.8239,-2.9118 -15.8532,0 -30.7357,5.1766 -14.8826,5.1765 -26.2063,15.8532 -11.0001,10.353 -17.7944,26.5297 -6.7942,15.8532 -6.7942,37.8535 0,18.4415 6.1472,32.6769 6.1471,13.912 16.1767,23.618 10.3531,9.7061 23.618,14.5591 13.5884,4.853 27.8239,4.853 15.5296,0 30.0886,-4.206 14.5591,-4.2059 28.1475,-11.9707 l 13.2649,31.3828 q -15.8532,9.706 -34.6181,15.2061 -18.765,5.5 -42.0595,5.5 -24.5885,0 -44.9712,-7.7648 -20.0591,-8.0883 -34.6181,-22.6474 -14.5591,-14.559 -22.6474,-34.9416 -7.7648,-20.3827 -7.7648,-45.2948 0,-28.1474 9.0589,-50.7948 9.3825,-22.6474 25.2357,-38.5006 16.1767,-15.8531 37.8535,-24.265 21.6767,-8.7354 46.9124,-8.7354 z"
           style="font-weight:600;font-family:'Quire Sans';-inkscape-font-specification:'Quire Sans Semi-Bold';fill:#ffffff;fill-opacity:1"
           id="path13746" />
        <path
           d="m 4223.6266,-2576.8606 v -226.4738 h 137.8255 l -1.9412,35.2652 h -96.7367 v 58.5597 h 90.266 v 33.971 h -90.266 v 63.0892 h 103.5309 l -1.9412,35.5887 z"
           style="font-weight:600;font-family:'Quire Sans';-inkscape-font-specification:'Quire Sans Semi-Bold';fill:#ffffff;fill-opacity:1"
           id="path13748" />
        <path
           d="m 4401.2461,-2666.156 v -137.1784 h 39.7947 v 134.9137 q 0,15.8531 3.8824,27.1768 3.8824,11.0002 11.0002,18.1179 7.1177,7.1178 16.8237,10.3531 9.706,3.2354 21.3533,3.2354 11.3237,0 20.7061,-3.5589 9.3825,-3.5589 16.5003,-11.0002 7.1177,-7.7648 11.0001,-19.7355 3.8824,-12.2943 3.8824,-29.1181 v -130.3842 h 39.1477 v 132.6489 q 0,21.3533 -5.5001,39.4712 -5.5001,17.7944 -17.1473,30.7357 -11.3237,12.6178 -28.7946,19.7356 -17.1473,7.1177 -40.7652,7.1177 -23.618,0 -41.0889,-6.4706 -17.1473,-6.7942 -28.4709,-18.765 -11.3237,-12.2943 -16.8238,-29.4416 -5.5001,-17.1473 -5.5001,-37.8535 z"
           style="font-weight:600;font-family:'Quire Sans';-inkscape-font-specification:'Quire Sans Semi-Bold';fill:#ffffff;fill-opacity:1"
           id="path13750" />
        <path
           d="m 4612.5135,-2803.3344 h 176.326 l -1.9412,35.2652 h -66.9715 v 191.2086 h -39.4712 v -191.2086 h -67.9421 z"
           style="font-weight:600;font-family:'Quire Sans';-inkscape-font-specification:'Quire Sans Semi-Bold';fill:#ffffff;fill-opacity:1"
           id="path13752" />
        <path
           d="m 4815.6925,-2803.3344 h 39.1477 v 226.4738 h -39.1477 z"
           style="font-weight:600;font-family:'Quire Sans';-inkscape-font-specification:'Quire Sans Semi-Bold';fill:#ffffff;fill-opacity:1"
           id="path13754" />
        <path
           d="m 5014.6657,-2806.5697 q 19.412,0 35.5887,2.9118 16.5003,2.9118 30.0887,7.4413 l -9.3825,34.9416 q -11.3237,-3.5588 -24.5886,-6.4707 -13.2649,-2.9118 -27.8239,-2.9118 -15.8532,0 -30.7357,5.1766 -14.8826,5.1765 -26.2063,15.8532 -11.0002,10.353 -17.7944,26.5297 -6.7942,15.8532 -6.7942,37.8535 0,18.4415 6.1472,32.6769 6.1471,13.912 16.1767,23.618 10.3531,9.7061 23.6179,14.5591 13.5885,4.853 27.824,4.853 15.5296,0 30.0886,-4.206 14.5591,-4.2059 28.1475,-11.9707 l 13.2649,31.3828 q -15.8532,9.706 -34.6182,15.2061 -18.7649,5.5 -42.0594,5.5 -24.5886,0 -44.9712,-7.7648 -20.0591,-8.0883 -34.6181,-22.6474 -14.5591,-14.559 -22.6474,-34.9416 -7.7648,-20.3827 -7.7648,-45.2948 0,-28.1474 9.0589,-50.7948 9.3825,-22.6474 25.2357,-38.5006 16.1767,-15.8531 37.8534,-24.265 21.6768,-8.7354 46.9125,-8.7354 z"
           style="font-weight:600;font-family:'Quire Sans';-inkscape-font-specification:'Quire Sans Semi-Bold';fill:#ffffff;fill-opacity:1"
           id="path13756" />
        <path
           d="m 5182.2558,-2803.3344 40.7652,-1.6177 87.0307,228.0915 -41.7359,2.2647 -24.2651,-66.3244 h -81.8541 l -22.6473,64.0597 h -42.383 z m 49.8242,128.7665 -16.5002,-45.6183 -12.9414,-41.4123 -12.9414,41.0888 -15.8531,45.9418 z"
           style="font-weight:600;font-family:'Quire Sans';-inkscape-font-specification:'Quire Sans Semi-Bold';fill:#ffffff;fill-opacity:1"
           id="path13758" />
        <path
           d="m 5333.0224,-2803.3344 h 39.1476 v 190.8851 h 100.2955 l -1.9412,35.5887 h -137.5019 z"
           style="font-weight:600;font-family:'Quire Sans';-inkscape-font-specification:'Quire Sans Semi-Bold';fill:#ffffff;fill-opacity:1"
           id="path13760" />
        <path
           d="m 5497.3776,-2622.8024 q 12.2943,5.5001 26.5298,9.706 14.2354,4.2059 29.7651,4.2059 9.3825,0 17.4708,-1.6176 8.4119,-1.9412 14.559,-5.5001 6.1472,-3.8824 9.7061,-9.3825 3.5588,-5.8236 3.5588,-13.5884 0,-7.4413 -3.5588,-12.6178 -3.2354,-5.1766 -9.3825,-9.059 -6.1472,-4.2059 -14.2355,-7.4413 -8.0884,-3.2353 -17.4709,-6.7942 -11.3236,-4.2059 -22.6473,-9.3825 -11.3237,-5.5001 -20.3827,-13.2649 -8.7354,-7.7648 -14.559,-18.7649 -5.5001,-11.0002 -5.5001,-26.5298 0,-15.2061 5.8236,-27.1769 6.1472,-11.9707 16.1767,-20.0591 10.0296,-8.0883 23.2945,-12.2943 13.2649,-4.2059 27.8239,-4.2059 20.0591,0 36.5593,2.9118 16.5003,2.5882 34.2946,9.706 l -10.0295,34.2946 q -14.559,-5.5001 -27.8239,-8.4119 -12.9414,-3.2353 -29.7652,-3.2353 -15.5296,0 -25.5591,7.1177 -9.7061,6.7942 -9.7061,18.1179 0,7.7648 3.2354,13.2649 3.5588,5.5001 9.3825,9.706 5.8236,3.8824 13.5884,7.1178 8.0883,3.2353 16.8238,6.4707 11.9707,4.2059 23.6179,9.3825 11.6473,5.1765 20.7062,12.6178 9.3825,7.4413 14.8826,18.1179 5.8236,10.3531 5.8236,25.5592 0,17.4708 -6.4707,30.7357 -6.1471,12.9414 -17.4708,21.6768 -11.0002,8.7354 -26.5298,13.2649 -15.5296,4.5294 -33.9711,4.5294 -23.2944,0 -40.1182,-5.1765 -16.8238,-5.1765 -30.4122,-12.2943 z"
           style="font-weight:600;font-family:'Quire Sans';-inkscape-font-specification:'Quire Sans Semi-Bold';fill:#ffffff;fill-opacity:1"
           id="path13762" />
        <path
           d="m 5750.3803,-2803.3344 h 39.1476 v 190.8851 h 100.2955 l -1.9412,35.5887 h -137.5019 z"
           style="font-weight:600;font-family:'Quire Sans';-inkscape-font-specification:'Quire Sans Semi-Bold';fill:#ffffff;fill-opacity:1"
           id="path13764" />
        <path
           d="m 5872.0288,-2803.3344 h 176.3261 l -1.9412,35.2652 h -66.9716 v 191.2086 h -39.4711 v -191.2086 h -67.9422 z"
           style="font-weight:600;font-family:'Quire Sans';-inkscape-font-specification:'Quire Sans Semi-Bold';fill:#ffffff;fill-opacity:1"
           id="path13766" />
        <path
           d="m 6075.2079,-2803.3344 h 62.7656 q 30.7357,0 54.6773,7.1178 23.9415,6.7942 40.7652,20.7061 16.8238,13.5885 25.5592,34.2946 8.7354,20.7062 8.7354,47.8831 0,26.8533 -9.0589,48.5301 -9.059,21.6767 -25.2357,36.8828 -16.1767,14.8826 -39.1476,22.971 -22.6473,8.0883 -50.1477,8.0883 h -68.9128 z m 39.1476,35.2652 v 155.9434 h 26.8534 q 20.0591,0 35.9122,-5.8236 15.8532,-6.1472 26.5298,-16.8238 11.0002,-11.0001 16.8238,-25.5592 5.8236,-14.8825 5.8236,-32.3534 0,-36.2358 -22.9709,-55.6478 -22.6474,-19.7356 -66.001,-19.7356 z"
           style="font-weight:600;font-family:'Quire Sans';-inkscape-font-specification:'Quire Sans Semi-Bold';fill:#ffffff;fill-opacity:1"
           id="path13768" />
        <path
           d="m 6285.1808,-2597.5668 q 0,-11.0001 6.7942,-17.7943 7.1178,-7.1178 18.4415,-7.1178 9.3824,0 16.5002,6.7942 7.4413,6.4707 7.4413,16.8238 0,11.3237 -7.1178,18.4414 -7.1177,6.7942 -18.4414,6.7942 -9.059,0 -16.5002,-6.7942 -7.1178,-6.7942 -7.1178,-17.1473 z"
           style="font-weight:600;font-family:'Quire Sans';-inkscape-font-specification:'Quire Sans Semi-Bold';fill:#ffffff;fill-opacity:1"
           id="path13770" />
      </g>
    </g>
  </g>
</svg>
