<svg xmlns="http://www.w3.org/2000/svg" viewBox="0 0 1860.46 1307.02"><defs><style>.cls-1{fill:#f9c7bb;}.cls-2{fill:#a74c3b;}.cls-3{fill:#ed6b6c;}.cls-4{fill:#f7f0f7;}.cls-5{fill:#ea9a81;}.cls-6{fill:#131f2d;}.cls-7{fill:#080435;}.cls-8{opacity:0.3;}.cls-9{fill:#fff;}.cls-10{fill:#020202;}.cls-11{fill:#44393d;}.cls-12{fill:#e7925c;}.cls-13{fill:#ddd7dd;}.cls-14{fill:#ec8751;}</style></defs><g id="Layer_2" data-name="Layer 2"><g id="_Layer_" data-name="&lt;Layer&gt;"><ellipse class="cls-1" cx="920.74" cy="1179.58" rx="920.74" ry="127.44"/><path class="cls-2" d="M772.43,181s17.16,11.49,34.43-.72c0,0-6.32-11.94-11-13.12,0,0-16.79,9.74-35.85-6.7C760,160.41,766.6,176.35,772.43,181Z"/><path class="cls-3" d="M738.57,128.38S736,159,772.43,181c0,0-19.65-26.61-11.52-44.34C760.91,136.61,750.49,126.87,738.57,128.38Z"/><path class="cls-2" d="M703.44,441.22s17.31-11.27,12.87-31.94c0,0-13.46,1.12-16.38,5,0,0,2.36,19.26-20.24,30.33C679.69,444.56,696.93,444.77,703.44,441.22Z"/><path class="cls-3" d="M641.8,451.71s27.19,14.41,61.64-10.49c0,0-32.19,7.62-45.3-6.82C658.14,434.4,645.1,440.16,641.8,451.71Z"/><path class="cls-2" d="M1731.58,279.25s7.71-19.16-7.8-33.55c0,0-10.37,8.65-10.56,13.46,0,0,13,14.42.82,36.45C1714,295.61,1728.29,285.9,1731.58,279.25Z"/><path class="cls-3" d="M1687.13,323.21s30.53-3.8,44.45-44c0,0-22,24.71-41,20.41C1690.57,299.66,1683.19,311.86,1687.13,323.21Z"/><path class="cls-4" d="M617.49,276.09s8.33,1.6,20.7-7.37c0,0,.78-7.8-.66-11.56s-4.06-10-6.19-9.11-9.17,4.73-16.07,5.69-.4,6.2-1.28,12.25S613.51,276.13,617.49,276.09Z"/><path class="cls-4" d="M1839.55,378.79s8.33,1.61,20.7-7.37c0,0,.78-7.8-.66-11.56s-4.06-10-6.19-9.1-9.16,4.72-16.07,5.68-.4,6.21-1.28,12.26S1835.57,378.84,1839.55,378.79Z"/><path class="cls-3" d="M405.36,315s6.7-4,9.62-17.84c0,0-4.29-5.83-7.59-7.51s-9-4.35-9.88-2.41S394.16,296.1,390,301s3.56,4.5,6.7,9.19S402.66,317.46,405.36,315Z"/><path class="cls-4" d="M485.56,189.22s2.06-7.55-5.34-19.56c0,0-7.12-1.26-10.68-.19s-9.49,3-8.81,5.06,3.71,8.76,4.11,15.18,5.68.8,11.19,2S485.33,192.89,485.56,189.22Z"/><path class="cls-4" d="M439.47,831.92s2.06-7.55-5.34-19.56c0,0-7.13-1.25-10.68-.19s-9.49,3-8.81,5.06,3.71,8.76,4.11,15.18,5.68.8,11.19,2S439.24,835.59,439.47,831.92Z"/><path class="cls-4" d="M1812.06,547.77s2-7.55-5.35-19.56c0,0-7.12-1.25-10.68-.19s-9.49,3-8.81,5.06,3.71,8.76,4.12,15.18,5.68.8,11.19,2S1811.82,551.44,1812.06,547.77Z"/><path class="cls-5" d="M1717.1,776.5c-.86,5.71,0,17.6-.74,23.34-.33,2.48-.84,11,1.6,11.87,2.11.77,5.71-5.47,7.06-8.69,9.27,19.38,28.36,41.43,11.62,1.88l0,0c1.69,3.3,13.31,27.9,17.86,24.19,3.32-2.72-6.83-22.71-9.56-28.16l.13-.08c3.23,5.34,12.14,21.95,15.46,19.52,4.36-3.2-7.79-24.28-7.79-24.28s9.66,17.72,12.83,12.26c1.79-3.08-4.25-13.4-8.1-19.77h0c-.81-1.33-1.52-2.5-2-3.39a10.8,10.8,0,0,0-1.37-1.86,98.56,98.56,0,0,0-13.22-15.9s-6.16-7.76-15.31-3.64C1719.75,766.38,1717.47,774,1717.1,776.5Z"/><path class="cls-5" d="M1346.54,528.57c-.77-5.72-4.93-16.9-5.81-22.61-.38-2.48-2.27-10.78-4.85-11-2.25-.15-4,6.86-4.35,10.32-14.32-16-38.82-31.85-11.69,1.44l0,0c-2.55-2.69-20.58-23.07-23.91-18.23-2.43,3.54,12.9,19.89,17,24.37l-.11.11c-4.59-4.23-17.78-17.69-20.29-14.43-3.3,4.29,14.25,21.15,14.25,21.15s-14.22-14.32-15.74-8.19c-.86,3.45,7.83,11.67,13.3,16.72h0c1.14,1.06,2.16,2,2.9,2.69a12.07,12.07,0,0,0,1.84,1.41A98.86,98.86,0,0,0,1326.23,544s8.09,5.72,15.73-.78C1346.82,539,1346.87,531.05,1346.54,528.57Z"/><path class="cls-6" d="M1554.51,1119.22s.79,13.08-8.29,17.48-36,9.82-25.1,17.43c6.26,4.37,33.49-.86,41.25-1.45s15.34,2,20.68-3.31c5.88-5.86-2.79-32.13-2.79-32.13s-6.42,3.8-12.46,4.12C1559.1,1121.81,1554.51,1119.22,1554.51,1119.22Z"/><path class="cls-6" d="M1688.6,1068.85s21.17,51.11,17.34,60.44-20.31,31.31-7.11,29.72c7.58-.91,24.4-23,29.79-28.57s12.78-8.71,13.22-16.25c.48-8.29-26.62-34.09-26.62-34.09s-3.44-37.54-7.73-33.28C1701.3,1053,1688.6,1068.85,1688.6,1068.85Z"/><path class="cls-6" d="M1531.65,500.27s-4.79-22.14,16.1-25.9,17.52,11.61,21.7,15.11S1565,505.07,1555,507.42,1531.65,500.27,1531.65,500.27Z"/><path class="cls-3" d="M1475.23,796.72c2.82-41.57,91.61,4.51,91.61,4.51s37.38,285.21,20.33,325.24c-3.36,7.9-17.87,7.77-24.65,7-48-5.24-59.94-147.79-72.47-210.44C1483.77,891.63,1473.52,821.86,1475.23,796.72Z"/><path class="cls-6" d="M1646.24,796c-2.52,10.21-42.76,20.92-90.93,10.1s-85.75-22.32-83.22-32.53,44.2-15.26,92.36-4.44S1648.77,785.79,1646.24,796Z"/><path class="cls-4" d="M1491.29,638.21a152.19,152.19,0,0,1-22.67-12.54S1494,583,1547.38,585.86c7.38.39,40.75,6.1,47.91,7.33,91.85,15.82,51.28,198.86,51,202.81-92.84-39.36-174.15-22.43-174.15-22.43C1471.4,703.8,1489.81,641.7,1491.29,638.21Z"/><path class="cls-3" d="M1629.7,798.13s-80.94-24.55-147.89-20.58a5.93,5.93,0,0,0-5.71,5.38s-1.32,23.37-.73,31.14C1476.68,831.25,1635.5,825,1635.5,825Z"/><path class="cls-5" d="M1586.19,591.57c-8.14,8.89-17.28,11.75-29.19,11.75-18,0-9.62-17.46-9.62-17.46,4.43-.1,6.85-2.21,7.21-6.36l.45-5.1.21-2.52.72-8.08.63-7.26,2.6-29.75,8.32,30.3,1.41,5.14L1573.8,580a16.75,16.75,0,0,0,12.29,11.56Z"/><path class="cls-6" d="M1568.93,562.23s-5.32,8.79-13.68,9.65l.72-8.08C1561.18,562.82,1568.93,562.23,1568.93,562.23Z"/><path class="cls-6" d="M1595.39,527.11s-2,4.65-.7,15c1.94,15.11-16.67,18.59-20.49,13.8-.48-.59,4.33-25.12,4.33-25.12l6.15-2.32Z"/><path class="cls-5" d="M1527.59,527c3.11-18.84,18.8-32.19,35.05-29.82s26.89,19.57,23.78,38.41-18.8,32.19-35.05,29.82S1524.48,545.83,1527.59,527Z"/><path class="cls-6" d="M1549.68,503.4c.64,1.17-6.89,18,27,27.28s19.63-33.24-5.74-37.86c-36.64-6.66-45.85,15.85-43.69,24.75S1549.68,503.4,1549.68,503.4Z"/><path class="cls-6" d="M1573.8,524.54s11.82,16.06,4.55,29.67c0,0,9.59-7.23,10.29-10.34s.39-14.79.39-14.79Z"/><path class="cls-5" d="M1581.63,540.15c-3.82,2.5-8.53,2.13-10.51-.83s-.5-7.4,3.33-9.91,8.54-2.13,10.52.84S1585.46,537.64,1581.63,540.15Z"/><path class="cls-7" d="M1554.1,531.2a.67.67,0,0,1-.38-.44.64.64,0,0,1,.51-.76,7.59,7.59,0,0,1,8.36,3.08.62.62,0,0,1-.17.88.79.79,0,0,1-1-.16,12,12,0,0,0-6.94-2.56A.78.78,0,0,1,1554.1,531.2Z"/><path class="cls-7" d="M1558.26,538.88c-.2,1.51-1.3,2.62-2.47,2.49s-1.94-1.46-1.75-3,1.3-2.62,2.47-2.49S1558.45,537.38,1558.26,538.88Z"/><path class="cls-7" d="M1529.68,531a.67.67,0,0,1-.53-.26.61.61,0,0,1,.16-.89,7.69,7.69,0,0,1,9-.15.62.62,0,0,1,.2.88.78.78,0,0,1-.94.19,12.31,12.31,0,0,0-7.46.12A.67.67,0,0,1,1529.68,531Z"/><path class="cls-7" d="M1536.64,536.61c.42,1.47-.14,2.89-1.28,3.18s-2.39-.65-2.82-2.12.14-2.89,1.27-3.18S1536.21,535.15,1536.64,536.61Z"/><g class="cls-8"><ellipse class="cls-9" cx="1559.61" cy="536.29" rx="15.93" ry="11.5" transform="translate(909.54 2052) rotate(-85.76)"/></g><g class="cls-8"><path class="cls-9" d="M1540.7,532.91c.32,8.41-4,16.73-9.57,18.57s-10.42-3.5-10.74-11.92,4-16.73,9.56-18.57S1540.37,524.49,1540.7,532.91Z"/></g><path class="cls-6" d="M1571.82,535.47a22.83,22.83,0,0,0-.12-3.4c0-.39-.09-.78-.16-1.17-.11-.66-.23-1.29-.4-1.92-1.13-4.37-3.56-7.8-6.82-9.58a9.69,9.69,0,0,0-8.16-.65,11.62,11.62,0,0,0-1.65.75c-4.26,2.36-7.32,7.53-8.14,13.37a16.71,16.71,0,0,0-.19,2,21.37,21.37,0,0,0,.25,4.78,20.61,20.61,0,0,0,1.21,4.32,13.88,13.88,0,0,0,6,7.19,10.37,10.37,0,0,0,3.32,1.13,8.76,8.76,0,0,0,1,.1,9.66,9.66,0,0,0,3.82-.59,11.69,11.69,0,0,0,3.66-2.14,18.57,18.57,0,0,0,5.79-10.15c.11-.42.19-.86.26-1.3A22.3,22.3,0,0,0,1571.82,535.47Zm-20.49,12.44a14.8,14.8,0,0,1-2.64-4.32,18.89,18.89,0,0,1-1.15-4.1,21.22,21.22,0,0,1-.26-4.34,16.66,16.66,0,0,1,.18-2c.76-5.69,3.71-10.71,7.86-12.84a9.75,9.75,0,0,1,1.24-.55,8.79,8.79,0,0,1,3.36-.53,8.55,8.55,0,0,1,3.84,1.1,11.75,11.75,0,0,1,4.3,4.23,15.36,15.36,0,0,1,1.2,2.4.78.78,0,0,1,0,.14s0,0,0,.07a10.43,10.43,0,0,1,.48,1.36,18.4,18.4,0,0,1,.6,2.56,18.7,18.7,0,0,1,.27,2.88,17.49,17.49,0,0,1,0,1.92c-.05.67-.12,1.34-.21,2v0a18.09,18.09,0,0,1-5.3,10.62,10.81,10.81,0,0,1-3.75,2.31,8.77,8.77,0,0,1-4.34.43,8.52,8.52,0,0,1-2.85-1,10.61,10.61,0,0,1-2.85-2.29Z"/><path class="cls-6" d="M1540.57,536.45c0-.46.09-.9.11-1.36a3.54,3.54,0,0,0-.4.16,23.85,23.85,0,0,1-1,6.91s0,0,0,0c.09-.25.17-.48.24-.72,0,0,0-.08,0-.12.09-.27.18-.57.26-.87s.24-.87.34-1.31.19-.9.26-1.36S1540.52,536.89,1540.57,536.45Zm0,0c0-.46.09-.9.11-1.36a3.54,3.54,0,0,0-.4.16,23.85,23.85,0,0,1-1,6.91s0,0,0,0c.09-.25.17-.48.24-.72,0,0,0-.08,0-.12.09-.27.18-.57.26-.87s.24-.87.34-1.31.19-.9.26-1.36S1540.52,536.89,1540.57,536.45Zm0,0c0-.46.09-.9.11-1.36a3.54,3.54,0,0,0-.4.16,23.85,23.85,0,0,1-1,6.91s0,0,0,0c.09-.25.17-.48.24-.72,0,0,0-.08,0-.12.09-.27.18-.57.26-.87s.24-.87.34-1.31.19-.9.26-1.36S1540.52,536.89,1540.57,536.45Zm0,0c0-.46.09-.9.11-1.36a3.54,3.54,0,0,0-.4.16,23.85,23.85,0,0,1-1,6.91s0,0,0,0c.09-.25.17-.48.24-.72,0,0,0-.08,0-.12.09-.27.18-.57.26-.87s.24-.87.34-1.31.19-.9.26-1.36S1540.52,536.89,1540.57,536.45Zm0,0c0-.46.09-.9.11-1.36a3.54,3.54,0,0,0-.4.16,23.85,23.85,0,0,1-1,6.91s0,0,0,0c.09-.25.17-.48.24-.72,0,0,0-.08,0-.12.09-.27.18-.57.26-.87s.24-.87.34-1.31.19-.9.26-1.36S1540.52,536.89,1540.57,536.45Zm0,0c0-.46.09-.9.11-1.36a3.54,3.54,0,0,0-.4.16,23.85,23.85,0,0,1-1,6.91s0,0,0,0c.09-.25.17-.48.24-.72,0,0,0-.08,0-.12.09-.27.18-.57.26-.87s.24-.87.34-1.31.19-.9.26-1.36S1540.52,536.89,1540.57,536.45Zm0,0c0-.46.09-.9.11-1.36a3.54,3.54,0,0,0-.4.16,23.85,23.85,0,0,1-1,6.91s0,0,0,0c.09-.25.17-.48.24-.72,0,0,0-.08,0-.12.09-.27.18-.57.26-.87s.24-.87.34-1.31.19-.9.26-1.36S1540.52,536.89,1540.57,536.45Zm0,0c0-.46.09-.9.11-1.36a3.54,3.54,0,0,0-.4.16,23.85,23.85,0,0,1-1,6.91s0,0,0,0c.09-.25.17-.48.24-.72,0,0,0-.08,0-.12.09-.27.18-.57.26-.87s.24-.87.34-1.31.19-.9.26-1.36S1540.52,536.89,1540.57,536.45Zm.82-1.58c0-.67,0-1.34-.09-2,0-.36-.07-.71-.12-1.07-.72-5.5-3.25-9.95-6.71-11.89a8.32,8.32,0,0,0-2.53-.92,8,8,0,0,0-2.13-.08,7.55,7.55,0,0,0-1.52.34h0l-.38.12c-6,2.2-9.84,11.26-8.64,20.21.74,5.5,3.25,9.95,6.73,11.9a7.93,7.93,0,0,0,2.75,1,7.55,7.55,0,0,0,3.36-.28l0,0,.41-.13a11.42,11.42,0,0,0,5.51-4.75v0h0a21.48,21.48,0,0,0,3-8.09A23.37,23.37,0,0,0,1541.39,534.87Zm-2.26,7.58a17.29,17.29,0,0,1-2.89,5.46,9.63,9.63,0,0,1-3.45,2.82l0,0h0l-.14.06a3,3,0,0,1-.49.21,3.89,3.89,0,0,1-.58.18,6.42,6.42,0,0,1-5-.64c-3.14-1.77-5.44-5.81-6.17-10.89,0,0,0,0,0,0v-.07l0-.11c-1.13-8.51,2.44-17.08,8-19.11a7.08,7.08,0,0,1,1.07-.29,6.22,6.22,0,0,1,2.15-.06,7,7,0,0,1,2.35.81,1,1,0,0,1,.17.12,10.8,10.8,0,0,1,3.86,4.17,19.45,19.45,0,0,1,2.16,6.83c0,.4.1.81.13,1.22,0,.69.08,1.4.08,2.1a23.85,23.85,0,0,1-1,6.91C1539.19,542.25,1539.16,542.36,1539.13,542.45Zm1.44-6c0-.46.09-.9.11-1.36a3.54,3.54,0,0,0-.4.16,23.85,23.85,0,0,1-1,6.91s0,0,0,0c.09-.25.17-.48.24-.72,0,0,0-.08,0-.12.09-.27.18-.57.26-.87s.24-.87.34-1.31.19-.9.26-1.36S1540.52,536.89,1540.57,536.45Zm0,0c0-.46.09-.9.11-1.36a3.54,3.54,0,0,0-.4.16,23.85,23.85,0,0,1-1,6.91s0,0,0,0c.09-.25.17-.48.24-.72,0,0,0-.08,0-.12.09-.27.18-.57.26-.87s.24-.87.34-1.31.19-.9.26-1.36S1540.52,536.89,1540.57,536.45Zm0,0c0-.46.09-.9.11-1.36a3.54,3.54,0,0,0-.4.16,23.85,23.85,0,0,1-1,6.91s0,0,0,0c.09-.25.17-.48.24-.72,0,0,0-.08,0-.12.09-.27.18-.57.26-.87s.24-.87.34-1.31.19-.9.26-1.36S1540.52,536.89,1540.57,536.45Zm0,0c0-.46.09-.9.11-1.36a3.54,3.54,0,0,0-.4.16,23.85,23.85,0,0,1-1,6.91s0,0,0,0c.09-.25.17-.48.24-.72,0,0,0-.08,0-.12.09-.27.18-.57.26-.87s.24-.87.34-1.31.19-.9.26-1.36S1540.52,536.89,1540.57,536.45Zm0,0c0-.46.09-.9.11-1.36a3.54,3.54,0,0,0-.4.16,23.85,23.85,0,0,1-1,6.91s0,0,0,0c.09-.25.17-.48.24-.72,0,0,0-.08,0-.12.09-.27.18-.57.26-.87s.24-.87.34-1.31.19-.9.26-1.36S1540.52,536.89,1540.57,536.45Zm0,0c0-.46.09-.9.11-1.36a3.54,3.54,0,0,0-.4.16,23.85,23.85,0,0,1-1,6.91s0,0,0,0c.09-.25.17-.48.24-.72,0,0,0-.08,0-.12.09-.27.18-.57.26-.87s.24-.87.34-1.31.19-.9.26-1.36S1540.52,536.89,1540.57,536.45Zm0,0c0-.46.09-.9.11-1.36a3.54,3.54,0,0,0-.4.16,23.85,23.85,0,0,1-1,6.91s0,0,0,0c.09-.25.17-.48.24-.72,0,0,0-.08,0-.12.09-.27.18-.57.26-.87s.24-.87.34-1.31.19-.9.26-1.36S1540.52,536.89,1540.57,536.45Z"/><path class="cls-6" d="M1539.53,535.4a1.06,1.06,0,0,1-.75-.5,1,1,0,0,1,.4-1.34,12.13,12.13,0,0,1,9.44,0,1,1,0,0,1,.59,1.28,1.06,1.06,0,0,1-1.36.55,10,10,0,0,0-7.64-.07A1.16,1.16,0,0,1,1539.53,535.4Z"/><path class="cls-6" d="M1578,500.22s6.44-21.77,26.86-16.2,14.35,16,12,22.73c-1.73,5-11.5,12-21.54,9.81S1578,500.22,1578,500.22Z"/><path class="cls-6" d="M1587.66,569.77a.63.63,0,0,1-.51-.27,28.1,28.1,0,0,0-11.88-8.77.63.63,0,0,1-.37-.81.64.64,0,0,1,.82-.37,29,29,0,0,1,12.46,9.22.64.64,0,0,1-.15.88A.63.63,0,0,1,1587.66,569.77Z"/><path class="cls-10" d="M1545.78,556.09a7.43,7.43,0,0,1-5.75-2.18.32.32,0,0,1,0-.47.34.34,0,0,1,.48,0c3.68,4.07,12.14.47,12.22.44a.35.35,0,0,1,.45.17.35.35,0,0,1-.18.45A20.65,20.65,0,0,1,1545.78,556.09Z"/><path class="cls-2" d="M1547.38,585.86s-7.5,17,9.62,17.46c0,0-9,8.47-15.29,5.07s-.27-6.42-3-8.69-5.62-3.9-2.94-6.55,0-7.29,0-7.29S1543.26,584.24,1547.38,585.86Z"/><path class="cls-2" d="M1541.39,628.19a2.7,2.7,0,1,0-2.69,2.53A2.62,2.62,0,0,0,1541.39,628.19Z"/><path class="cls-2" d="M1530.09,709.46a2.7,2.7,0,1,0-2.69,2.53A2.62,2.62,0,0,0,1530.09,709.46Z"/><path class="cls-2" d="M1530.09,672.64a2.7,2.7,0,1,0-2.69,2.53A2.61,2.61,0,0,0,1530.09,672.64Z"/><path class="cls-4" d="M1482,655.14s-10,39.17-9.72,103.45l63.59-172.73s-40.62,2.41-91-8.61c-31-6.78-87.15-50.91-93-54-6.31-3.37-27.88,23.07-27.88,23.07C1319.19,554.84,1398.93,637.77,1482,655.14Z"/><path class="cls-4" d="M1598.37,593.8s59,0,144.68,164.27a9.88,9.88,0,0,1-4,13.26l-18.78,10.27a18.1,18.1,0,0,1-23.51-5.5c-17.86-25.53-58.64-80.06-91.33-95.73C1562.25,659.69,1598.37,593.8,1598.37,593.8Z"/><path class="cls-2" d="M1586.19,591.57l12.18,2.23s2.16,6-3.8,7.85-7.17,1.89-9.08,6.23-9.35,4.54-12,3-7.2,4.15-11.44,4.15-6.74-7.06-5.09-11.74C1557,603.32,1572.92,600.75,1586.19,591.57Z"/><path class="cls-6" d="M1655.45,723.59a.41.41,0,0,1-.37-.22c-9.46-18.92-32.57-34.06-32.8-34.21a.42.42,0,0,1-.12-.57.41.41,0,0,1,.57-.12c.23.15,23.52,15.41,33.08,34.53a.41.41,0,0,1-.18.55A.39.39,0,0,1,1655.45,723.59Z"/><path class="cls-6" d="M1482,655.55l-.12,0a.41.41,0,0,1-.28-.51l3.87-13.13a.41.41,0,0,1,.51-.28.41.41,0,0,1,.28.51l-3.87,13.13A.41.41,0,0,1,1482,655.55Z"/><path class="cls-3" d="M1524.71,798.7s57.11,222.63,150.15,300.64a29.06,29.06,0,0,0,32.15,3.37l16.5-8.64a22.85,22.85,0,0,0,9.54-31c-24.71-46-83.48-162.73-103.35-264.91Z"/><path class="cls-6" d="M1584.57,967.62c-.25-.59-24.76-59.46-33.29-92.87-8.46-33.09-35.73-44.66-36-44.77l.44-1.06c.28.12,28.08,11.91,36.67,45.55,8.52,33.33,33,92.11,33.24,92.7Z"/><path class="cls-6" d="M266.87,504.28s1.41,17.16-20.67,21.17-17.73,16.44-13.36,23.08-25.05-6.48-52.47,17.9,13,48.58,35,45.68,105.8-20.91,109.92-27.23,9.84-23.66-1.29-26.09c-19.92-4.35,4.54-19.69-8.38-26.77S266.87,504.28,266.87,504.28Z"/><path class="cls-5" d="M399.35,590.43c16.23-12,28.87-30.83,37.61-56.12,6.6-19.11,10.59-50,10.66-50.7l-35,7C411,504.47,397.27,546.15,374.8,561c-10.2,6.71-29.33,14.87-44.32,10.48l-5.3,36.6c25.51,7.47,51.57-2.53,70.86-15.28C397.16,592,398.27,591.23,399.35,590.43Z"/><path class="cls-6" d="M70.52,862s-28.88-4.81-37.62-1.78S3.57,877.24,5.07,865c.87-7,21.52-21.38,26.78-26.07S40,827,47.07,827.61c3.33.31,7.22,6.62,12.74,9.6A100.11,100.11,0,0,0,80.39,845S89,855.19,85,858.94C79.24,864.34,70.52,862,70.52,862Z"/><path class="cls-6" d="M263.94,1064.34s9.94,27.54,16.85,33.69,29.24,17.22,17.86,21.88c-6.52,2.67-29.17-8.3-35.83-10.6s-14.48-1.28-17.35-7.72c-1.37-3,2.23-9.53,2.13-15.8a99.89,99.89,0,0,0-3.26-21.78s4.67-12.46,9.9-10.82C261.76,1055.57,263.94,1064.34,263.94,1064.34Z"/><path class="cls-4" d="M333,777.91c-2.33,24.15-6.23,55.41-12.8,93.53-12.57,73-27.34,146.62-34.59,181.89a27.54,27.54,0,0,1-25.86,22.23l-6.77.24c-13.61.47-24.6-11.29-23.52-25.19l18.43-238.82L250.42,769S336.84,738,333,777.91Z"/><path class="cls-6" d="M180.25,752.62c.7,10.07,35,26,79.73,22.69s80.06-8.89,79.37-19-37.17-20.86-81.88-17.51S179.56,742.55,180.25,752.62Z"/><path class="cls-4" d="M300.87,762.25,238,896.53a51.59,51.59,0,0,1-55,29.06h0a22.77,22.77,0,0,1-18.67-27l27.88-138.3c.77-3.41,12.78-4.91,16.19-5.17C236.72,753,302.69,749.65,300.87,762.25Z"/><path class="cls-11" d="M234.94,590.17s20.56-31.63,63.95-19.58c20.51,5.7,45.95,5.09,47.5,43.95,1.4,34.89,4.24,75.58-7,141.81,0,0-70.09-27.8-159.1-3.73.32-3.81,5.22-102.19,26.44-155.16C212.79,582.23,228.06,600.23,234.94,590.17Z"/><path class="cls-11" d="M185.22,587.59l37.51,36S337.15,637.65,347,617.84c16.2-32.72.48-53.54.48-53.54s-35.47,3.75-64.82,2.57c-6.69-.27-19.21,0-25.79.26C211,568.74,185.22,587.59,185.22,587.59Z"/><path class="cls-6" d="M185.22,587.59c-3.32,3.67-2.63,16,10.14,26.88s23.27,14.55,27.37,9.12c3.08-4.09-.56-20.46-12.77-30.57C197.38,582.6,187.59,585,185.22,587.59Z"/><path class="cls-4" d="M210.1,755s60.71-9.7,120,3.71a5.52,5.52,0,0,1,4.28,5.93L332.1,786.8l-62-15.8Z"/><path class="cls-5" d="M265.22,566.9c5.92,9.62,22.5,17.81,32.79,14.59,8.77-2.73,2.78-14.44,2.78-14.44-4-.73-5.79-3.08-5.48-7.08l.38-4.91.2-2.44.6-7.78.54-7,2.23-28.66L287.19,536.8l-2.05,4.69-7.08,16.18a15.59,15.59,0,0,1-12.75,9.22Z"/><path class="cls-12" d="M285.14,541.49s3.41,9.12,10.75,11.13l.6-7.78C292,543.17,285.14,541.49,285.14,541.49Z"/><path class="cls-6" d="M266.87,504.28s1.08,4.72-1.68,14.35c-4,14.09,12.06,20.07,16.21,16.07.51-.5,0-24.51,0-24.51l-5.14-3.09Z"/><path class="cls-5" d="M327.48,513.93c.1-18.36-11.88-33.31-26.76-33.39s-27,14.73-27.13,33.09,11.88,33.31,26.76,33.39S327.38,532.29,327.48,513.93Z"/><path class="cls-6" d="M311.35,488.32c-.75,1,3.39,18.15-28.32,22.05S270.58,475.94,294,475.21c33.76-1.07,38.55,21.66,35.26,29.81S311.35,488.32,311.35,488.32Z"/><path class="cls-6" d="M286.56,505s-13,13.57-8.61,27.55c0,0-7.47-8.24-7.62-11.31s1.91-14.11,1.91-14.11Z"/><path class="cls-5" d="M277.16,518.66c3,2.94,7.31,3.26,9.53.72s1.57-7-1.46-9.89-7.3-3.26-9.53-.72S274.13,515.73,277.16,518.66Z"/><path class="cls-7" d="M303.14,514.12a.63.63,0,0,0,.41-.37.6.6,0,0,0-.34-.79,6.62,6.62,0,0,0-7.94,1.72.62.62,0,0,0,0,.87.67.67,0,0,0,.86,0,10.5,10.5,0,0,1,6.6-1.44A.65.65,0,0,0,303.14,514.12Z"/><path class="cls-7" d="M296.65,520.6c0,1.46.76,2.68,1.82,2.72s2-1.12,2-2.58-.76-2.68-1.82-2.72S296.71,519.14,296.65,520.6Z"/><path class="cls-7" d="M325,517.43a.61.61,0,0,0,.52-.17.63.63,0,0,0,0-.87,6.63,6.63,0,0,0-8-1.43.62.62,0,0,0-.32.81.67.67,0,0,0,.81.31,10.53,10.53,0,0,1,6.65,1.18A.55.55,0,0,0,325,517.43Z"/><path class="cls-7" d="M316,520.76c-.6,1.33-.31,2.76.65,3.2s2.24-.28,2.85-1.61.32-2.76-.65-3.2S316.64,519.43,316,520.76Z"/><path class="cls-6" d="M231.78,546.1l.78-1.53c-1-.67-3.42-8.09-1.52-14.19,1.69-5.42,6.13-8.16,13.18-8.13,20.94.06,24.42-17.08,24.45-17.25l-1.67-.32c-.13.65-3.29,15.92-22.77,15.86-10.4,0-13.95,5.59-15.09,10.32C227.56,537.38,230,545.18,231.78,546.1Z"/><path class="cls-4" d="M190,926.24c-25.48-.79-85.78-25.88-119.25-40.66a25.86,25.86,0,0,1-13.25-34l.71-1.63a26.25,26.25,0,0,1,27.81-15.52L201.46,851S237.47,927.7,190,926.24Z"/><path class="cls-10" d="M244,885.56l-1.5-.57c.19-.5,19.19-50.88,25.19-66.7,6.09-16,24.13-28.39,24.9-28.9l.89,1.32c-.18.12-18.39,12.58-24.3,28.15C263.21,834.67,244.22,885.05,244,885.56Z"/><path class="cls-9" d="M314.29,533.85s-2.54,5.64-7.84,5.62c-6.52,0-7.77-6.83-7.77-6.83S306.64,535.35,314.29,533.85Z"/><path class="cls-5" d="M147.31,647.06c-20-2.35-40.35-12.45-60.49-30.08-15.21-13.31-37.11-41.87-37.51-42.42L86.74,564.3c8.29,11.19,40.42,43.28,67.27,45,11.53.73,22.16-3.79,32.45-13.8a6.85,6.85,0,0,1,5.78-1.86c4.1.6,11.2,3.31,20.7,13.22,6.64,6.93,1.85,13.62,1.85,13.62-18.44,19.15-40.38,28.47-63.45,27C150,647.34,148.65,647.22,147.31,647.06Z"/><path class="cls-5" d="M415,495.62c-3-5.18-6.67-16.72-9.58-21.95-1.26-2.27-5-10.19-2.92-11.72,1.8-1.34,7.73,3.58,10.27,6.25,1.82-21,12.33-47.35,10.78-5.07h.06c.42-3.62,2.58-30.26,8.47-28,4.32,1.65,1.87,23.49,1.23,29.44l.17,0c1.16-6,3.67-24.27,7.87-22.9,5.53,1.8,1.52,25.25,1.52,25.25s2.82-19.54,8-15.26c2.93,2.41.88,13.92-.51,21.06h0c-.29,1.5-.56,2.81-.74,3.8a9.48,9.48,0,0,1-.64,2.16,86.78,86.78,0,0,1-7,18.83,12.52,12.52,0,0,1-13.76,7.78C421.48,504.48,416.33,497.86,415,495.62Z"/><path class="cls-5" d="M87.28,573.81c.27-6-1.83-17.9-1.67-23.89.07-2.6-.29-11.34-2.84-11.75-2.21-.35-5.19,6.75-6.21,10.31-11.34-17.8-32.85-36.27-11.9.49l0,0c-2-3-16.29-25.62-20.48-20.91-3.07,3.46,9.22,21.68,12.54,26.67l-.13.11c-3.8-4.77-14.49-19.82-17.58-16.66-4.06,4.16,10.35,23.09,10.35,23.09s-11.56-16-14.19-9.81c-1.48,3.5,5.67,12.74,10.2,18.43h0c1,1.19,1.79,2.23,2.4,3a9.31,9.31,0,0,0,1.58,1.61,86.86,86.86,0,0,0,15,13.44,12.52,12.52,0,0,0,15.8.53C85.66,584.65,87.16,576.4,87.28,573.81Z"/><ellipse class="cls-4" cx="935.98" cy="1112.62" rx="263.68" ry="35.54"/><rect class="cls-4" x="672.29" y="1051.19" width="527.36" height="61.43"/><ellipse class="cls-13" cx="935.98" cy="1051.19" rx="263.68" ry="35.54"/><path class="cls-5" d="M1109.54,286.08c-3.07-6-6.47-19.26-9.43-25.33-1.28-2.63-6.75-14.84-4.33-16.49,2.1-1.44,10.22,7.45,12.91,10.6,3.31-23.79,43.93-1.26,41.94,6.79h0c-.42,1.68-.79,3.16-1.05,4.27a11.12,11.12,0,0,1-.86,2.43,100.91,100.91,0,0,1-9,21.07,14.31,14.31,0,0,1-15.91,8.25C1116.26,296.43,1110.88,288.69,1109.54,286.08Z"/><path class="cls-4" d="M889,490.1s7-39.88,79.82-45.68c56.1-4.47,113,27.69,119.73,76.58,9.33,67.61,11,103.76,3.46,137.82,0,0-154.37-27.2-202.15,5.6,0,0,16.41-62.73-2-151.24A44.31,44.31,0,0,1,889,490.1Z"/><path class="cls-4" d="M817.05,318.66c15.44,50.49,99.19,127.67,129.42,128.91,6.5.27-55.9,78.52-57,75.19-5.24-16.66-10.28-23.94-21.42-36.08-36.45-39.74-86.26-93-94.67-142Z"/><path class="cls-4" d="M983.26,445S1090.62,402.65,1105,291.74a11.62,11.62,0,0,1,14-9.88l21,4.53a8.48,8.48,0,0,1,6.68,8.08c.46,20.87-2.37,88.44-50.34,175-4.92,8.88-14.73,22.62-7.9,51.47Z"/><path class="cls-6" d="M889.69,664.32C889.78,674,935,679,991.05,678.19s100.89-9.75,100.8-19.47-46.55-26.22-102.58-25.37S889.6,654.6,889.69,664.32Z"/><path class="cls-5" d="M969.79,434.68l1.74-18.84.51-5.48,3-32.25,7.6,29.84,4.56,17.92,1.45,5.67c1,3.84,3.51,4.16,7.11,6.93,1.45,1.12,10.67,7.82,3,13.36-9.57,6.9-30.8,4-40.26-3.65C958.52,448.15,969.23,440.77,969.79,434.68Z"/><path class="cls-6" d="M996.73,361.65a40.62,40.62,0,0,1,3.49,16.5c0,9.59-14.08-11-14.08-11Z"/><path class="cls-5" d="M1001.9,380.57c-6.09-17.27-22.63-27.17-36.95-22.12s-21,23.14-14.9,40.4S972.68,426,987,421,1008,397.83,1001.9,380.57Z"/><path class="cls-6" d="M947.41,389.71l12.73-4.11a9.66,9.66,0,0,0,6.13-5.74c1.79-4.74,4.54-7.56,16.78-9.68,15.5-2.67,23.72-14,23.68-22.38-.05-8.57-9.09-12.48-16-6.93s-5.61-4.75-13.25-4.2c-14.28,1-14.62,12.28-26.06,14.34-15,2.69-39.28,19.66-21.08,43.21Z"/><path class="cls-7" d="M977.1,388.05a.54.54,0,0,0,.16-.47.55.55,0,0,0-.62-.48,6,6,0,0,0-5.53,4.9.57.57,0,0,0,.4.68.6.6,0,0,0,.68-.4,9.5,9.5,0,0,1,4.59-4.07A.61.61,0,0,0,977.1,388.05Z"/><path class="cls-7" d="M976.21,395.55c.61,1.18,1.8,1.78,2.66,1.34s1.06-1.76.45-2.94-1.79-1.79-2.65-1.34S975.61,394.36,976.21,395.55Z"/><path class="cls-7" d="M996.93,382.17a.4.4,0,0,0,.23-.34.66.66,0,0,0-.37-.69,3.91,3.91,0,0,0-5.42,1.81.65.65,0,0,0,.15.76.42.42,0,0,0,.62,0,5.83,5.83,0,0,1,4.5-1.51A.42.42,0,0,0,996.93,382.17Z"/><path class="cls-7" d="M993.14,388.81c.11,1.32,1,2.33,1.94,2.25s1.65-1.22,1.54-2.55-1-2.33-2-2.25S993,387.48,993.14,388.81Z"/><path class="cls-6" d="M930.35,394.22s13.09,17.5,26.14,16.22c0,0-13.43-12.6,6.39-26.21C962.88,384.23,942.27,385.31,930.35,394.22Z"/><path class="cls-5" d="M950.59,401.12c3.09,1.16,6.44-.14,7.47-2.91s-.63-5.94-3.73-7.1-6.44.14-7.47,2.91S947.49,400,950.59,401.12Z"/><path class="cls-6" d="M962.88,384.23s1.7,16.65,5.67,19,26.12-.93,35.5-7h0a21.75,21.75,0,0,1-13,25.12,31.68,31.68,0,0,1-10.45,2.17h0c-7.41.26-15-1.22-19.34-7.23-1.32-1.83-1.34-14.79-1.34-14.79s-.56-7.5-5.6-10.39C954.33,391.11,958.3,385.68,962.88,384.23Z"/><path class="cls-9" d="M999.9,403.24a56.38,56.38,0,0,1-17.25,5.09s3.14,8.2,12.05,4.55C999.88,410.75,999.9,403.24,999.9,403.24Z"/><path class="cls-6" d="M987.58,340.08a4.07,4.07,0,0,1-3.9-2.72l.71-.23c0,.12,1,2.89,4.47,2l.18.73A6.16,6.16,0,0,1,987.58,340.08Z"/><path class="cls-9" d="M986.5,365l-.18-.33a49.46,49.46,0,0,0,7.64-5.26c3.39-2.87,7.32-7.24,6.75-11.7-.32-2.42-1.05-3.92-2.24-4.57-1.92-1.06-4.73.26-7.2,1.41l-1.11.52-.16-.34,1.11-.52c2.56-1.19,5.45-2.55,7.54-1.4,1.3.72,2.1,2.3,2.43,4.85.47,3.67-1.91,7.83-6.88,12A49.92,49.92,0,0,1,986.5,365Z"/><path class="cls-9" d="M945.68,355.38l0-.37c16.44-1.22,22.23-11.82,22.28-11.93l.34.18C968.21,343.37,962.32,354.15,945.68,355.38Z"/><path class="cls-3" d="M982.15,449s12.51-4.91,16.14-2.09,2.17,17.07-3.63,18.76S976.57,452.81,982.15,449Z"/><path class="cls-6" d="M801.64,343.41c-14.59,11.26-25,7.17-28.21,1.22s4.28-16.16,16.68-22.79,23.75-9.13,26.94-3.18S812.77,334.82,801.64,343.41Z"/><path class="cls-6" d="M1020,608.75a4.12,4.12,0,0,1-8.11-1.5c.41-2.24,2.1-4.1,4.34-3.68C1019.37,604.15,1020.38,606.51,1020,608.75Z"/><path class="cls-6" d="M1015.84,571.88a4.12,4.12,0,1,1-8.11-1.49c.41-2.24,2.1-4.1,4.34-3.69C1015.24,567.29,1016.25,569.64,1015.84,571.88Z"/><path class="cls-6" d="M1010.74,530.14a4.12,4.12,0,1,1-8.11-1.49c.41-2.24,2.1-4.1,4.34-3.69C1010.14,525.55,1011.15,527.9,1010.74,530.14Z"/><path class="cls-6" d="M989.62,1023.89s-.39,15,10.39,19.82,42.48,10.32,30,19.32c-7.13,5.16-39.18-.13-48.28-.61s-17.84,2.71-24.3-3.26c-7.11-6.57,2-36.88,2-36.88s7.65,4.19,14.72,4.39C984.36,1027,989.62,1023.89,989.62,1023.89Z"/><path class="cls-11" d="M1045.23,652.5c34.07,7.89,40.21,11.61,38.07,32a973.44,973.44,0,0,1-19.42,115c-20.32,86-43.51,172.53-54.84,214-4,14.83-18.34,25.07-34.62,24.81l-8.75-.15c-17.6-.28-31.11-14.94-28.95-31.39l37.19-282.66,2.69-59.82Z"/><path class="cls-6" d="M855.73,1023.89s-.39,15,10.39,19.82,42.48,10.32,30,19.32c-7.13,5.16-39.18-.13-48.28-.61s-17.84,2.71-24.3-3.26c-7.11-6.57,2-36.88,2-36.88s7.65,4.19,14.72,4.39C850.47,1027,855.73,1023.89,855.73,1023.89Z"/><path class="cls-11" d="M1045.23,652.5l-162,362.19c-5.94,14.9-21.32,24.5-38.23,23.87l-7.37-.28c-17.4-.65-29.91-16.16-25.88-32.1l92-341.86C905.9,656.65,971.55,638.37,1045.23,652.5Z"/><path class="cls-10" d="M957.54,849.38a.78.78,0,0,1-.26,0,.83.83,0,0,1-.53-1L990.2,745c1-2.42,2-4.9,3-7.52,6-15.57,13.5-34.93,34.87-48.24a.84.84,0,0,1,1.15.27.83.83,0,0,1-.27,1.14c-20.9,13-28.28,32.1-34.2,47.43-1,2.63-2,5.12-3,7.5L958.33,848.81A.83.83,0,0,1,957.54,849.38Z"/><path class="cls-5" d="M805.3,319.84c1-6.67,0-20.32.92-27,.38-2.9,1-12.76-1.82-13.56-2.44-.7-6.63,6.85-8.18,10.69-10.68-21.52-32.7-45.2-13.44-1.09l-.06,0c-2-3.66-15.32-31-20.58-26.27-3.86,3.44,7.83,25.58,11,31.63l-.16.1c-3.72-5.87-14-24.22-17.82-21.1-5,4.1,8.94,27.31,8.94,27.31S753,281,749.27,287.61c-2.07,3.72,4.89,15.07,9.32,22.08h0c.93,1.47,1.75,2.75,2.35,3.73a11.44,11.44,0,0,0,1.58,2,101.29,101.29,0,0,0,15.24,17.13,14.3,14.3,0,0,0,17.7,2.77C802.21,331.78,804.86,322.74,805.3,319.84Z"/><path class="cls-3" d="M986.7,464c-3.75,18.23-24.48,89.41-123.92,126.31a41.71,41.71,0,0,0-16.66,11.3l-18,20.25a7.18,7.18,0,0,0,2.49,11.37l26.5,11.52a39.1,39.1,0,0,0,28.64,1.06c32.26-11.45,115.18-70.5,115.14-187.44,0-5-4.09-1.12-8.92.14h0A7.17,7.17,0,0,0,986.7,464Z"/><path class="cls-2" d="M989.42,445.11s-17.15-4.66-20.84-10.33-20,9.27-19.39,13.32,33.44,24.35,35.27,21.34S993.79,448.68,989.42,445.11Z"/><path class="cls-2" d="M989.42,445.11s2-6.38.59-9.66c0,0-1-2.9,1.55-2.88s17.12,8.66,18.57,11.52,2.67,16.7-1.74,18.05S992.08,449.41,990.7,448A4.11,4.11,0,0,1,989.42,445.11Z"/><path class="cls-6" d="M994.1,466c-3.56,0-6.72-2.83-6.86-2.95l.41-.46s3.46,3.09,7,2.77,5.91-7.06,5.94-7.13l.57.2c-.1.3-2.61,7.19-6.45,7.54Z"/><path class="cls-6" d="M1282.43,383.82h-.08a.35.35,0,0,1-.23-.18,15.69,15.69,0,0,1,4.72-20.59l12.38-8.55a33.9,33.9,0,0,0,14.14-22.1,34.36,34.36,0,0,0-5.64-25.76l-13.16-19a21.92,21.92,0,0,0-24.12-8.57,87.63,87.63,0,0,1-73.71-12.27c-1.7-1.18-3.4-2.47-5.08-3.82-22.87,2.82-45.7,2-66-2.45s-37.26-12.13-49.18-22.31c-10.79-9.22-16.93-20.13-17.75-31.53-1.23-17,7.26-30.05,22.7-34.95a.36.36,0,1,1,.22.68c-15.11,4.78-23.42,17.58-22.22,34.22.81,11.21,6.87,21.94,17.51,31,11.83,10.11,28.73,17.77,48.87,22.15,20.29,4.42,43.09,5.26,65.94,2.43a.35.35,0,0,1,.26.08c1.7,1.37,3.43,2.68,5.15,3.88a86.88,86.88,0,0,0,73.12,12.17,22.65,22.65,0,0,1,24.9,8.85l13.15,19a35.09,35.09,0,0,1,5.76,26.3,34.63,34.63,0,0,1-14.44,22.55l-12.37,8.56a15,15,0,0,0-4.7,19.31l128.1-89.57a15,15,0,0,0-19.21-1.86l-14.55,10.06a35.14,35.14,0,0,1-48.78-9.08l-13.13-19a22.76,22.76,0,0,1-3.4-7.59.35.35,0,0,1,.69-.16,21.77,21.77,0,0,0,3.29,7.34l13.14,19a34.41,34.41,0,0,0,47.79,8.89L1391,290.93a15.74,15.74,0,0,1,20.42,2.25.35.35,0,0,1,.09.28.37.37,0,0,1-.15.25l-128.77,90A.37.37,0,0,1,1282.43,383.82ZM1158.87,254.21h0c-20.12-2-39.95-7.65-54.41-15.58-16.7-9.15-25.87-20.79-26.55-33.64a.36.36,0,0,1,.34-.37.34.34,0,0,1,.37.33c.66,12.6,9.71,24,26.18,33.06,14.38,7.89,34.11,13.53,54.14,15.49a.35.35,0,0,1,.32.39A.36.36,0,0,1,1158.87,254.21Zm-55.24-83.62a.36.36,0,0,1-.2-.06c-3.7-2.55-7.35-4.92-10.85-7.05-2.79-1.72-5.69-3.43-8.87-5.22l-9.76-5.48-6.32,4.16c-.32.23-3.31,2.2-4.74.16l-5.67-8.19a3.77,3.77,0,0,1-.48-2.62,2.69,2.69,0,0,1,1.4-1.77L1266.65.17c.94-.57,2.51.38,3.67,1.27,3.63,2.79,8.32,8.91,7.38,12.17-.18.6-1.5,2.12-10.25,8.57l1.23,8c.55,3.53,1.16,7,1.81,10.31.58,3.07,1.25,6.2,2,9.34a42.26,42.26,0,0,1,7.76-17.17c9.9-12.82,25.08-16.31,40.62-9.33,10.43,4.69,18.56,14.2,23.51,27.5,5.48,14.69,6.89,33.31,4.08,53.85a.35.35,0,0,1-.4.3.35.35,0,0,1-.31-.4c2.8-20.42,1.4-38.92-4-53.51C1338.83,38,1330.83,28.63,1320.58,24c-15.22-6.84-30.09-3.44-39.77,9.11a42,42,0,0,0-7.94,18.47.34.34,0,0,1-.33.29.35.35,0,0,1-.36-.27c-.91-3.67-1.71-7.36-2.38-10.95-.66-3.33-1.27-6.8-1.82-10.34l-1.26-8.25a.37.37,0,0,1,.14-.34c8.57-6.32,10-7.93,10.16-8.33.84-2.92-3.73-8.8-7.13-11.41C1268.3.78,1267.37.56,1267,.77L1058.52,145.12a2,2,0,0,0-1.09,1.33,3,3,0,0,0,.38,2.05l5.67,8.19c1,1.51,3.65-.26,3.76-.34l6.5-4.28a.35.35,0,0,1,.37,0l9.94,5.58c3.2,1.8,6.11,3.51,8.9,5.24,3.51,2.13,7.17,4.51,10.88,7.07a.35.35,0,0,1,.1.49A.36.36,0,0,1,1103.63,170.59Zm219.5-14.12a.38.38,0,0,1-.3-.17c-2.36-3.73-10.18-16.06-11.91-18a257.64,257.64,0,0,1-17.05-28.36c-1.47-2.83-2.94-5.83-4.51-9.17-1-2-1.94-4.22-2.91-6.46a.35.35,0,0,1,.11-.42.35.35,0,0,1,.44,0,23.51,23.51,0,0,0,7.71,4.39c11.42,3.75,21-4.22,21.37-4.56,1.55-1.32,1.64-4,.2-6a4.43,4.43,0,0,0-3-1.87,3.06,3.06,0,0,0-2.38.69c-.3.25-7.51,6-15.22,3.48-4.64-1.54-8.76-6-12.26-13.12-1.81-3.69-2.15-9.53-.92-15.63a33.83,33.83,0,0,1,8-16.46c4.15-4.37,11.36-8.62,22.14-4,8.1,3.45,14.27,10.37,18.33,20.57,4.76,12,6.39,27.85,4.73,46a163.31,163.31,0,0,1-12.29,48.92.37.37,0,0,1-.3.21Zm-35.45-61.15c.78,1.77,1.56,3.49,2.32,5.13,1.57,3.33,3,6.33,4.49,9.15a259,259,0,0,0,17,28.24c1.62,1.84,8.38,12.44,11.59,17.51,11.54-26.9,17.72-67.52,7.29-93.72-4-10-10-16.8-17.95-20.18-10.4-4.43-17.35-.34-21.35,3.87-8.15,8.58-10.48,24.13-7,31.29,3.42,7,7.4,11.28,11.85,12.76,7.34,2.44,14.26-3.12,14.55-3.36a3.77,3.77,0,0,1,2.91-.84,5.15,5.15,0,0,1,3.48,2.15c1.65,2.27,1.51,5.37-.32,6.93-.42.35-10.25,8.56-22,4.69A23.37,23.37,0,0,1,1287.68,95.32Z"/><path class="cls-3" d="M1263.51,8.3,1055,152.68c-2.16,1.21-1,3.56-.82,3.86l5.63,8.12c1.21,1.73,4-.06,4.24-.27,0,0,208-136.82,209.9-143.15C1275.21,16.9,1265.67,7,1263.51,8.3Z"/><path class="cls-3" d="M1262.39,21.3l.77,5.23L1264.87,38c.52,3.42,1.1,6.85,1.77,10.26.79,4.3,1.73,8.6,2.81,12.82a251.83,251.83,0,0,0,16.44,46.77c1.43,3.06,2.9,6.09,4.45,9.09A250.92,250.92,0,0,0,1307.2,145c2.09,2.38,12.82,19.48,12.82,19.48.51,1.09,1,2.21,1.47,3.3a82.36,82.36,0,0,1,4.6,13.79,86.94,86.94,0,0,1-14.78,72.07,22.17,22.17,0,0,0-.57,25.89l13,18.8a34.58,34.58,0,0,0,48.12,8.76L1386.44,297a15.27,15.27,0,0,1,19.9,2.11s-11.15,14.71-61.6,51.16c-61.1,44.16-67.17,38.88-67.17,38.88a15.32,15.32,0,0,1,4.68-20l12.37-8.56c15.7-10.88,11.92-41.52-4.29-66.94-5.45-8.56-15.25-11.23-24.41-8.58a86.91,86.91,0,0,1-73.17-11.86,89.93,89.93,0,0,1-11.21-9.23c-.73-.72-1.43-1.42-2.13-2.16,0,0-12.22-16.06-13.72-18.82a250.86,250.86,0,0,0-20.16-25.45c-2.23-2.49-4.52-4.92-6.83-7.3a253.42,253.42,0,0,0-38.62-32.43c-3.54-2.41-7.14-4.75-10.82-7-2.9-1.78-5.86-3.49-8.84-5.16L1070.34,160l-4.62-2.58,27.56-19.06,141.53-98Z"/><path class="cls-3" d="M1191.51,268.11a3.54,3.54,0,0,1-2,.94c-23.48,3.19-46.92,2.53-67.77-1.92-20.13-4.29-37-11.87-48.82-21.92-10.65-9.06-16.69-19.8-17.46-31-1.14-16.72,7.28-29.61,22.53-34.48,15.46-4.94,33.8,0,45.65,12.28,7.53,7.82,11.21,15.58,10.93,23.07-.45,12.12-11.37,18.47-11.84,18.74-1.93,1.1-4.67.23-6.12-1.94s-1.06-4.8.87-5.91c.19-.11,8.08-4.83,8.35-12.77.16-4.75-2.51-10-7.94-15.64-9.21-9.55-44.57-11.39-43.29,14.89,1.71,35.32,68.37,53.89,112.3,47.91a5.29,5.29,0,0,1,5.48,3.79A3.9,3.9,0,0,1,1191.51,268.11Z"/><path class="cls-3" d="M1321.11,177.49a3.5,3.5,0,0,0,1.57-1.55c11.06-21,18.48-43.2,21.46-64.31,2.88-20.38,1.55-38.84-3.83-53.37-4.86-13.12-12.87-22.48-23.17-27.06-15.31-6.81-30.3-3.33-40.11,9.33-10,12.82-11.61,31.74-4.14,47.09,4.76,9.75,10.78,15.87,17.92,18.18,11.54,3.74,21.25-4.34,21.66-4.69,1.7-1.43,1.83-4.31.29-6.41s-4.16-2.65-5.86-1.21c-.17.14-7.31,5.93-14.86,3.45-4.52-1.48-8.54-5.79-12-12.82-5.81-11.93,4.61-45.77,28.86-35.55,32.58,13.73,27.14,82.71,6.44,121.92a5.29,5.29,0,0,0,1.69,6.45A3.87,3.87,0,0,0,1321.11,177.49Z"/><path class="cls-4" d="M1187.47,116.8l27.76,20.35a9.38,9.38,0,0,0,10.25.55l22.18-12.82a7.37,7.37,0,0,1,10.57,9l-7.6,19.87a9.39,9.39,0,0,0,3,10.77l25.16,19.54a7.31,7.31,0,0,1-4.13,13.08l-32.76,1.57a9.41,9.41,0,0,0-8.14,5.59l-12.13,27.51a6.54,6.54,0,0,1-12.15-.45l-11-30.92a9.4,9.4,0,0,0-8.65-6.24l-25.85-.54a6.49,6.49,0,0,1-3.7-11.71l22.23-16.29a9.39,9.39,0,0,0,3.7-9.18l-6.08-35.14A4.65,4.65,0,0,1,1187.47,116.8Z"/><path class="cls-6" d="M1222.34,239a6.76,6.76,0,0,1-6.26-4.06L1202.55,205a9.08,9.08,0,0,0-8.8-5.3l-25.8,1.62a6.84,6.84,0,0,1-4.91-12l20.79-18.08a9,9,0,0,0,2.82-9.1l-9-34.51a5,5,0,0,1,7.45-5.53l29.36,18a9,9,0,0,0,9.87-.29l21-14.62a7.72,7.72,0,0,1,11.82,8.49l-5.92,20.42a9,9,0,0,0,3.75,10.1l26.69,17.37a7.67,7.67,0,0,1-3.17,14l-32.51,4.29a9,9,0,0,0-7.37,6l-9.8,28.41a6.76,6.76,0,0,1-6.2,4.64Zm-28-40a9.79,9.79,0,0,1,8.88,5.73l13.53,29.89a6.2,6.2,0,0,0,11.5-.53l9.8-28.41a9.69,9.69,0,0,1,7.93-6.49l32.51-4.29a7,7,0,0,0,2.89-12.73l-26.69-17.38a9.69,9.69,0,0,1-4.05-10.88l5.92-20.43a7,7,0,0,0-10.74-7.71l-21,14.62a9.77,9.77,0,0,1-10.65.31l-29.36-18a4.3,4.3,0,0,0-6.4,4.75l9,34.51a9.68,9.68,0,0,1-3,9.81l-20.8,18.09a6.13,6.13,0,0,0,4.41,10.74l25.8-1.61Z"/><path class="cls-5" d="M1123.67,239.26s-8.63-4.64-11.17,3.75c-3.25,10.69.92,18.62,4.85,19.23,3.32.52,5.16-12.49,5.16-12.49s-1,19.12,4.86,18.17,5.54-18.17,5.54-18.17.88,18.17,6.43,18.17,4.57-17.34,4.57-17.34-1,17.55,5.3,16.62c2.8-.42,5.57-12,5.51-17.22,0-4.94-3.94-6.09-9.59-6.39a9,9,0,0,0-9-2c-1.3.44-3.45-2.07-4.48-2.28A21,21,0,0,0,1123.67,239.26Z"/><path class="cls-6" d="M486.58,1174.33s-11.63,22.72-7.77,31,19.76,27.15,7.6,26.9c-7-.14-23.21-19-28.36-23.73s-12-6.89-12.71-13.84c-.75-7.64,32.69-36.11,32.69-36.11s2.8-1.16,6.89,2.39C490.82,1166.08,486.58,1174.33,486.58,1174.33Z"/><path class="cls-3" d="M625.83,915.16s10,156.74-114.5,258.29c-8.62,7-22,16-31.21,9.7l-9-6c-10.16-6.93-16.79-21.58-2.89-37.75,31.12-36.2,77.38-143.85,68.54-236.87Z"/><path class="cls-6" d="M701.07,895.49c-38.42,14.62-161.25,8.8-164.29,7-5.11-2.95-5.1-6.94-5.1-6.94l80.38-31.06L673.49,866l18.87,4,13.32,20.56S705.68,893.73,701.07,895.49Z"/><path class="cls-5" d="M794,568.89c-.63-5.74.7-17.59.17-23.35-.22-2.49-.4-11,2.07-11.8,2.14-.69,5.5,5.7,6.71,9,10-19,30-40.29,11.69-1.42l.05,0c1.82-3.23,14.39-27.36,18.79-23.47,3.22,2.84-7.71,22.42-10.65,27.76l.13.09c3.43-5.22,13-21.47,16.2-18.91,4.24,3.37-8.72,24-8.72,24s10.34-17.32,13.3-11.74c1.66,3.14-4.78,13.22-8.87,19.44h0c-.86,1.3-1.62,2.44-2.18,3.31a10.6,10.6,0,0,1-1.44,1.81,98.44,98.44,0,0,1-13.83,15.37S811,586.43,802,582C796.28,579.11,794.3,571.38,794,568.89Z"/><path class="cls-5" d="M501,544.37c3-4.91,6.92-16.18,9.87-21.15,1.28-2.16,5.1-9.77,3.21-11.55-1.64-1.54-7.41,2.78-9.91,5.21-.89-21.47-9.75-49.26-9.95-6.31h-.05c-.26-3.7-1.24-30.89-6.88-29.27-4.13,1.19-2.67,23.56-2.31,29.65l-.16,0c-.86-6.18-2.5-25-6.51-24-5.27,1.22-2.41,25.38-2.41,25.38s-1.9-20.08-7-16.32c-2.85,2.12-1.37,14-.34,21.37h0c.22,1.54.41,2.9.54,3.92a10.72,10.72,0,0,0,.53,2.26,98.62,98.62,0,0,0,5.88,19.82s2.61,9.55,12.64,9.38C494.55,552.63,499.66,546.5,501,544.37Z"/><path class="cls-6" d="M644.16,1209.94s.65,12.46,9.18,15.75,33.08,5.81,24.16,14.07c-5.12,4.75-29.91,2.44-36.89,2.63s-13.45,3.41-18.76-1.12c-5.84-5-.83-30.71-.83-30.71s6.11,3,11.52,2.69C640.34,1212.83,644.16,1209.94,644.16,1209.94Z"/><path class="cls-3" d="M701.07,895.49c-.1,25.93-.39,59.68-6.09,100.76-10.87,78.31-24.06,157.29-30.56,195.15a29.4,29.4,0,0,1-26.8,24.61l-7.21.48c-14.51,1-26.63-11.18-26-26l11.35-255.3-79-32.62C572.84,886.14,701.13,880.27,701.07,895.49Z"/><path class="cls-6" d="M611.52,1020.48c-.06-.46-6.22-46.49-10.84-63-4.58-16.32-25.82-30.52-26-30.66l.61-.91c.21.14,21.79,14.56,26.48,31.27,4.64,16.56,10.81,62.66,10.87,63.12Z"/><path class="cls-5" d="M611.18,660.75l5.62-16.83,1.63-4.9,9.62-28.81,1.26,28.66.76,17.2.24,5.45c.16,3.69,2.59,4.47,5.54,7.68,1.2,1.31,8.85,9.2.16,12.76-10.82,4.44-31-2.28-38.75-11.09C597.32,670.86,609.37,666.19,611.18,660.75Z"/><path class="cls-5" d="M648.16,608.48c-6.46-15.8-23.19-24.17-37.38-18.68s-20.45,22.74-14,38.54S620,652.51,634.17,647,654.62,624.29,648.16,608.48Z"/><path class="cls-2" d="M546.93,707.27S557,664,618.56,664c107.28,0,77.19,87.51,87.12,226.63,0,0-8.67-10.45-43.57-15.25-35.46-4.87-86.61,2.63-130.43,20.21,0,0-.57-74.62,7.58-139C542.5,731,542,721.89,546.93,707.27Z"/><path class="cls-2" d="M495.56,538.65a14.55,14.55,0,0,1,14.86,10.19c20,64.34,55.94,111.26,108.14,115.16,6.3.47-81.33,111.56-81,108.35,2.72-28.35-6-63.56-20.48-84.4-27.37-39.29-48.54-84.6-51.1-136.21A11.2,11.2,0,0,1,476.37,540Z"/><path class="cls-2" d="M821,583.49c-5,17.88-26.71,65.8-90.17,124.46h0q-2.47,2.28-5,4.61c-6.92,6.24-21.73,31.69-23.18,59L616.91,664s47.28-1.27,93.52-24.14c28.48-14.08,56.56-36.36,72.94-71.58,2.61-5.63,9.78-7.63,15.52-4.33L817,574.38A8.11,8.11,0,0,1,821,583.49Z"/><path class="cls-11" d="M711.32,736.11c-27.42-8-39.46-29-44.74-45.28a104.28,104.28,0,0,1-4.92-33.68l.89.05a103.91,103.91,0,0,0,4.89,33.38c5.22,16,17.1,36.82,44.13,44.67Z"/><path class="cls-11" d="M665.36,683.56l-.81-.39c2.34-4.82,15.88-9.4,30.21-14.24,15.34-5.18,31.21-10.54,35.76-16.7,3.1-4.19,10.34-9.39,18.73-15.41,16.06-11.54,36.06-25.91,36.94-40.54a58.72,58.72,0,0,1,6.68-24.79,32.09,32.09,0,0,1,5.71-7.86l.61.67c-.11.1-10.78,10-12.1,32-.91,15-21.1,29.55-37.32,41.21-8.32,6-15.51,11.14-18.53,15.21-4.72,6.39-20.72,11.79-36.19,17C680.9,674.56,667.54,679.08,665.36,683.56Z"/><path class="cls-11" d="M674.5,706.81l-.83-.35c3.31-7.82,17-13.28,31.47-19.06,14.67-5.85,29.84-11.9,34.34-20.65,3.79-7.38,13.36-16,23.5-25.07,14.19-12.74,28.87-25.91,30.43-37.78a88.9,88.9,0,0,1,13.09-35.6l.74.51A88.07,88.07,0,0,0,794.3,604c-1.6,12.21-16.41,25.49-30.72,38.34-10.07,9-19.58,17.58-23.3,24.81-4.66,9.05-20,15.16-34.8,21.08C691.17,693.94,677.67,699.33,674.5,706.81Z"/><path class="cls-11" d="M691.7,726.21l-.73-.53c.14-.18,13.73-18.75,29.85-25.47,11.9-5,22.06-18,31-29.46,3.1-4,6-7.75,8.83-10.89,1.49-1.68,3.35-3.74,5.45-6.07C778.58,640,801.76,614.26,803.28,607c1.79-8.5,12.84-31.84,13.31-32.82l.81.38c-.11.24-11.47,24.23-13.24,32.63-1.57,7.48-24,32.34-37.37,47.19-2.1,2.33-4,4.39-5.45,6.07-2.77,3.12-5.7,6.87-8.79,10.84-9,11.57-19.27,24.69-31.39,29.74C705.28,707.66,691.84,726,691.7,726.21Z"/><path class="cls-11" d="M662.2,664.86,662,664c.47-.09,46.68-9.77,54.14-18.52,3-3.53,11.64-9,21.65-15.35,14.92-9.47,33.48-21.24,35.2-28.51,2.67-11.32,10-32.41,20.64-39.6l.5.74c-10.39,7-17.63,27.87-20.27,39.07-1.8,7.62-19.75,19-35.59,29.06-9.53,6-18.53,11.75-21.44,15.17C709.18,655,664.11,664.47,662.2,664.86Z"/><path class="cls-11" d="M667.44,876.35c-.09-.52-8.86-52-.39-81,8.18-28-1.33-61.48-11.72-90.55-9.43-26.4-.07-46.18,0-46.38l.81.4c-.09.19-9.28,19.65,0,45.68,10.44,29.21,20,62.87,11.74,91.11-8.42,28.79.32,80,.41,80.56Z"/><path class="cls-11" d="M688.2,881.51c-.09-.25-8.53-25.69-4.08-62.23,2.16-17.67.49-35.18-1.12-52.12-1.69-17.77-3.29-34.56.34-47.88l.87.24c-3.59,13.15-2,29.87-.32,47.56,1.62,17,3.29,34.54,1.13,52.3-4.43,36.34,3.94,61.59,4,61.84Z"/><path class="cls-11" d="M630,874.17c-.07-.38-6.4-38.65,6.09-73.94,12.39-35-4.19-85-4.36-85.52l.85-.29c.17.51,16.85,50.79,4.35,86.11-12.4,35.07-6.11,73.11-6,73.49Z"/><path class="cls-11" d="M603.21,876.4c-.14-.46-13.45-45.68-6.38-72.47,7-26.58,3.25-54.4,3.21-54.68l.89-.13c0,.29,3.82,28.28-3.23,55-7,26.54,6.23,71.53,6.37,72Z"/><path class="cls-11" d="M577,881.7l-.86-.24c.08-.31,8.51-31-.78-57.66-9.37-26.95-1.89-78.21-1.81-78.73l.89.14c-.08.51-7.52,51.55,1.77,78.29C585.56,850.48,577.06,881.39,577,881.7Z"/><path class="cls-11" d="M554.61,887.6c-4.36-7.41-3.8-21.11-3.15-37,.3-7.27.61-14.79.47-22.3-.45-23.59,6.23-85.76,6.3-86.39l.89.1c-.07.63-6.74,62.74-6.29,86.27.14,7.54-.17,15.07-.47,22.36-.64,15.72-1.2,29.3,3,36.48Z"/><path class="cls-11" d="M531.23,688.08c0-.31-3.33-31.18-21.48-55.08-18.29-24.09-29.89-92.54-30-93.23l.89-.15c.11.69,11.68,68.93,29.84,92.84,18.3,24.1,21.62,55.22,21.65,55.53Z"/><path class="cls-11" d="M549.24,683.44c-.07-.42-7.4-42.31-26.46-69.79s-32.17-74.44-32.3-74.91l.87-.24c.13.47,13.1,47.14,32.17,74.64s26.53,69.73,26.6,70.15Z"/><path class="cls-6" d="M616.05,579.84s18.59-5.4,30.21,6.84,4,24.83-8.54,26-16.26,21.88,0,25.48,20.68,28.47,7,36,30.9,51.26,13.2,86-139.42,18.92-167-13.19c-28.17-32.83-13.63-60.29,36-62,31.35-1.11,16.19-49.63,29.38-76.22S597.61,567.35,616.05,579.84Z"/><path class="cls-6" d="M469,719.66a28.31,28.31,0,0,1,8.33-30.13c9.8-8.92,24.15-11.73,35.71-7,9.31,3.81,17.07,4.24,23.07,1.26,5.65-2.81,9.66-8.52,11.91-17,1.14-4.28.36-11.55-.55-20-2.27-21.09-5.37-50,17-65.36,31.29-21.46,51.92-2.49,52.12-2.3l-1.23,1.31c-.8-.75-19.82-18.13-49.87,2.47-21.54,14.77-18.5,43-16.28,63.69.92,8.6,1.72,16,.5,20.64-2.36,8.85-6.8,15.12-12.85,18.12-6.48,3.22-14.74,2.81-24.55-1.21-10.93-4.48-24.52-1.81-33.82,6.66a26.57,26.57,0,0,0-7.82,28.28Z"/><path class="cls-5" d="M633.19,617.14a6,6,0,0,0-8,.29,5.06,5.06,0,0,0,.92,7.42,6,6,0,0,0,8-.29A5.06,5.06,0,0,0,633.19,617.14Z"/><path class="cls-6" d="M629.94,626.59a6.55,6.55,0,0,1-4.85-2.46.19.19,0,0,1,0-.27.2.2,0,0,1,.27,0c3.45,3.76,6.6,1.87,6.64,1.85a.19.19,0,1,1,.19.32A4.64,4.64,0,0,1,629.94,626.59Z"/><path class="cls-2" d="M1251.72,821.12s-3.36,59,12.44,172.81c11.4,82.15,25.24,165,32,204.72a30.84,30.84,0,0,0,28.12,25.81l7.56.51c15.22,1,27.93-11.73,27.24-27.31l-11.91-267.83-2.34-88.11Z"/><path class="cls-6" d="M1173.9,886c40.31,15.35,115.43-6.33,172.35,7.39l.85-16.23-79.82-23.63-64.44,1.58L1183,859.3l-14,21.57S1169.07,884.12,1173.9,886Z"/><path class="cls-5" d="M1076.38,543.35c.67-6-.73-18.45-.18-24.49.24-2.62.43-11.55-2.16-12.38-2.25-.73-5.77,6-7,9.4-10.51-19.94-31.43-42.27-12.26-1.5l0,0c-1.91-3.39-15.1-28.7-19.71-24.62-3.38,3,8.09,23.52,11.17,29.13l-.13.09c-3.61-5.47-13.62-22.52-17-19.84-4.45,3.54,9.15,25.14,9.15,25.14s-10.85-18.17-14-12.32c-1.75,3.29,5,13.86,9.3,20.39h0c.91,1.37,1.7,2.57,2.28,3.47a10.9,10.9,0,0,0,1.52,1.9,103.52,103.52,0,0,0,14.5,16.13s6.78,7.87,16.21,3.19C1074,554.07,1076.1,546,1076.38,543.35Z"/><path class="cls-5" d="M1385.75,517.63c-3.19-5.15-7.27-17-10.36-22.2-1.34-2.26-5.35-10.24-3.37-12.1,1.72-1.63,7.78,2.91,10.4,5.46.93-22.52,10.23-51.67,10.43-6.62h.06c.27-3.89,1.3-32.41,7.22-30.71,4.33,1.25,2.8,24.72,2.42,31.11l.16,0c.91-6.49,2.63-26.19,6.83-25.21,5.54,1.27,2.54,26.63,2.54,26.63s2-21.08,7.3-17.13c3,2.23,1.44,14.68.36,22.42h0c-.22,1.62-.43,3-.57,4.11a11,11,0,0,1-.55,2.37,103.14,103.14,0,0,1-6.17,20.79s-2.74,10-13.26,9.84C1392.48,526.29,1387.13,519.86,1385.75,517.63Z"/><path class="cls-6" d="M1233.61,1215.83s-.68,13.08-9.64,16.53-34.7,6.09-25.34,14.77c5.37,5,31.38,2.55,38.7,2.75s14.11,3.57,19.68-1.18c6.13-5.23.87-32.21.87-32.21s-6.41,3.12-12.09,2.82C1237.61,1218.87,1233.61,1215.83,1233.61,1215.83Z"/><path class="cls-2" d="M1173.9,886c.11,27.21.41,62.61,6.39,105.7,11.41,82.16,25.24,165,32.06,204.73a30.84,30.84,0,0,0,28.12,25.81l7.56.51c15.22,1,27.93-11.73,27.24-27.32l-11.91-267.82,82.89-34.22C1308.42,876.15,1173.84,870,1173.9,886Z"/><path class="cls-6" d="M1317.47,1218.09s-.68,13.08-9.64,16.53-34.7,6.09-25.34,14.77c5.37,5,31.38,2.55,38.7,2.75s14.11,3.57,19.68-1.18c6.13-5.23.87-32.21.87-32.21s-6.41,3.12-12.08,2.82C1321.48,1221.13,1317.47,1218.09,1317.47,1218.09Z"/><path class="cls-6" d="M1267.85,1017.09l-1.14-.16c.07-.48,6.53-48.85,11.41-66.21,4.92-17.54,27.55-32.66,27.78-32.81l.63,1c-.22.15-22.51,15-27.31,32.16C1274.37,968.32,1267.91,1016.6,1267.85,1017.09Z"/><path class="cls-5" d="M1268.2,639.72l-5.9-17.66-1.71-5.14-10.08-30.22-1.33,30.06-.79,18-.25,5.71c-.17,3.88-2.72,4.69-5.82,8.06-1.25,1.37-9.28,9.64-.17,13.38,11.36,4.66,32.58-2.39,40.65-11.63C1282.74,650.31,1270.1,645.42,1268.2,639.72Z"/><path class="cls-5" d="M1229.4,584.88c6.78-16.58,24.34-25.35,39.22-19.6s21.45,23.86,14.68,40.44-24.34,25.35-39.22,19.6S1222.63,601.46,1229.4,584.88Z"/><path class="cls-6" d="M1243.32,580.37c-16.17-3.49-21.77-14-20-22,2.34-10.26,11.54-17.54,18.64-11.72s6-4.34,14-3.37c14.94,1.81,15.24,12,27,15.51,15.47,4.56,27.17,33.24,9.62,47.57C1292.57,606.31,1256.1,583.13,1243.32,580.37Z"/><path class="cls-6" d="M1231.65,566.48s13.26,19.64,8.82,27.69-4.72,11.57,4.13,18.69-1.88,12.36,11.31,16.27,33.23-6.59,39.31-30.65a35.79,35.79,0,0,0-2.69-24.28Z"/><path class="cls-5" d="M1231.92,591.6a6.27,6.27,0,0,1,8.4.3c2.06,2.24,1.62,5.72-1,7.79a6.27,6.27,0,0,1-8.41-.3C1228.9,597.16,1229.33,593.67,1231.92,591.6Z"/><path class="cls-6" d="M1297.42,614.58h0a.41.41,0,0,1-.41-.42c0-3.44-2.82-6.13-2.85-6.16a.41.41,0,1,1,.56-.6c.13.12,3.16,3,3.11,6.77A.41.41,0,0,1,1297.42,614.58Z"/><path class="cls-6" d="M1296.4,606.37a9.29,9.29,0,0,1-1.56-.13.41.41,0,0,1,.15-.81s4.46.82,5.86-2.13a.42.42,0,0,1,.55-.2.41.41,0,0,1,.19.55C1300.5,606,1298,606.37,1296.4,606.37Z"/><path class="cls-6" d="M1245.27,546.7a3.05,3.05,0,0,1-1.51-.42,11.7,11.7,0,0,1-2.87-2.45c-1.5-1.61-2.78-3-6.4-2.83a.4.4,0,0,1-.43-.39.41.41,0,0,1,.39-.43c4-.18,5.54,1.48,7,3.09a11.47,11.47,0,0,0,2.67,2.3,2,2,0,0,0,1.8.18c2-.75,3.43-4.44,3.44-4.48a.43.43,0,0,1,.53-.25.41.41,0,0,1,.24.53c-.06.17-1.52,4.09-3.92,5A2.87,2.87,0,0,1,1245.27,546.7Z"/><path class="cls-6" d="M1283.94,557.51h0c-6.76-.67-11-6.66-11.12-6.91a.41.41,0,0,1,.1-.57.42.42,0,0,1,.58.1c0,.06,4.15,5.94,10.52,6.57a.41.41,0,0,1,0,.82Z"/><path class="cls-6" d="M1235.32,601.52a4.88,4.88,0,0,1-2.37-.58.2.2,0,0,1-.07-.27.21.21,0,0,1,.28-.06c.13.08,3.35,2,7-1.94a.2.2,0,1,1,.29.27A6.87,6.87,0,0,1,1235.32,601.52Z"/><path class="cls-3" d="M1335.61,688.52s-10.56-45.4-75.15-45.4c-112.55,0-81,91.8-91.39,237.75,0,0,49.54-32.28,177.56,5.2,0,0,5.57-78.28-3-145.86C1340.25,713.38,1340.79,703.86,1335.61,688.52Z"/><path class="cls-3" d="M1389.49,511.63a15.24,15.24,0,0,0-15.58,10.69c-21,67.49-58.69,116.71-113.45,120.8-6.61.49,85.32,117,85,113.67-2.87-29.75,6.25-66.68,21.47-88.54,28.72-41.22,50.93-88.75,53.62-142.89A11.76,11.76,0,0,0,1409.62,513Z"/><path class="cls-3" d="M1262.19,643.13s-129.55-3.48-174.62-100.41c-2.74-5.9-10.27-8-16.29-4.54l-19,10.93a8.5,8.5,0,0,0-4.17,9.55c5.43,19.26,29.22,71.67,99.9,135.42,7.25,6.54,22.79,33.24,24.32,61.86Z"/><path class="cls-14" d="M1127,268.33c-2.91,0-4.39-4.59-4.45-4.79a.38.38,0,0,1,.24-.48.39.39,0,0,1,.48.25s1.46,4.42,3.87,4.26,3.47-4.33,3.48-4.37a.38.38,0,0,1,.45-.28.37.37,0,0,1,.28.45c0,.2-1.14,4.75-4.16,5Z"/><path class="cls-14" d="M1139.71,268h0c-3.1,0-4.74-4-4.8-4.21a.37.37,0,0,1,.21-.49.38.38,0,0,1,.49.21s1.52,3.71,4.1,3.73h0c2.42,0,2.79-3.59,2.79-3.62a.38.38,0,0,1,.76.07C1143.1,265.14,1142.18,268,1139.71,268Z"/><path class="cls-14" d="M1148.58,267.65c-2.69,0-3.8-3.84-3.85-4a.37.37,0,0,1,.26-.46.38.38,0,0,1,.47.26s1.15,4,3.66,3.4a.38.38,0,0,1,.45.28.37.37,0,0,1-.28.45A3,3,0,0,1,1148.58,267.65Z"/><path class="cls-5" d="M1101.17,263s-4.31-8.42-4.43-11.9,4.7-9.94,7.46-9.68c4.65.42-.22,9.94,8.69,19.68,3.84,4.19,9.37,9.89,9.37,9.89Z"/></g></g></svg>