<?xml version="1.0" encoding="UTF-8" standalone="no"?>
<svg
   height="480pt"
   viewBox="-68 0 480 480"
   width="480pt"
   version="1.1"
   id="svg9"
   sodipodi:docname="total-deposit.svg"
   inkscape:version="1.1 (c68e22c387, 2021-05-23)"
   xmlns:inkscape="http://www.inkscape.org/namespaces/inkscape"
   xmlns:sodipodi="http://sodipodi.sourceforge.net/DTD/sodipodi-0.dtd"
   xmlns="http://www.w3.org/2000/svg"
   xmlns:svg="http://www.w3.org/2000/svg">
  <defs
     id="defs13" />
  <sodipodi:namedview
     id="namedview11"
     pagecolor="#ffffff"
     bordercolor="#666666"
     borderopacity="1.0"
     inkscape:pageshadow="2"
     inkscape:pageopacity="0.0"
     inkscape:pagecheckerboard="0"
     inkscape:document-units="pt"
     showgrid="false"
     inkscape:zoom="0.8125"
     inkscape:cx="319.38462"
     inkscape:cy="320.61538"
     inkscape:window-width="1366"
     inkscape:window-height="705"
     inkscape:window-x="-8"
     inkscape:window-y="-8"
     inkscape:window-maximized="1"
     inkscape:current-layer="svg9" />
  <linearGradient
     id="a"
     gradientUnits="userSpaceOnUse"
     x1="-9.092326"
     x2="329.099674"
     y1="376.824"
     y2="38.632">
    <stop
       offset="0"
       stop-color="#41dfd0"
       id="stop2"
       style="stop-color:#4304fa;stop-opacity:1" />
    <stop
       offset="1"
       stop-color="#ee83ef"
       id="stop4"
       style="stop-color:#c63c96;stop-opacity:1" />
  </linearGradient>
  <path
     d="m106.578125 165.96875 15.355469 4.519531c-1.285156 4.386719-1.9375 8.9375-1.929688 13.511719h-16c-.007812-6.101562.859375-12.175781 2.574219-18.03125zm35.480469-22.359375-8.671875-13.449219c-5.125 3.304688-9.753907 7.320313-13.75 11.929688l12.085937 10.476562c3.003906-3.457031 6.484375-6.476562 10.335938-8.957031zm60.5625-13.441406-8.671875 13.449219c3.851562 2.480468 7.332031 5.5 10.335937 8.957031l12.085938-10.476563c-3.996094-4.605468-8.628906-8.625-13.75-11.929687zm29.382812 53.832031c.003906-6.097656-.859375-12.164062-2.566406-18.015625l-15.363281 4.488281c1.285156 4.394532 1.933593 8.949219 1.929687 13.527344zm-73.089844-63.359375 2.234376 15.847656c4.546874-.648437 9.164062-.648437 13.710937 0l2.230469-15.847656c-6.027344-.84375-12.144532-.84375-18.175782 0zm6.5625 118.945313 24 8c4.195313 1.394531 8.730469-.875 10.128907-5.074219 1.394531-4.195313-.875-8.730469-5.074219-10.128907l-18.527344-6.152343v-18.230469c0-4.417969-3.582031-8-8-8-4.417968 0-8 3.582031-8 8v24c.003906 3.441406 2.207032 6.496094 5.472656 7.585938zm-165.47265575-175.585938c0-35.347656 28.65234375-64 63.99999975-64s64 28.652344 64 64-28.652344 64-64 64c-35.328125-.039062-63.9609372-28.671875-63.99999975-64zm15.99999975 0c0 26.507812 21.488282 48 48 48 26.507813 0 48-21.492188 48-48s-21.492187-48-48-48c-26.5.027344-47.972656 21.5-48 48zm32 24c2.121094 0 4.15625-.84375 5.65625-2.34375l16-16c1.5-1.5 2.34375-3.535156 2.34375-5.65625v-24c0-4.417969-3.582031-8-8-8-4.417968 0-8 3.582031-8 8v20.6875l-13.65625 13.65625c-2.289062 2.289062-2.972656 5.730469-1.734375 8.71875s4.15625 4.9375 7.390625 4.9375zm296-8c0 35.347656-28.652344 64-64 64s-64-28.652344-64-64 28.652344-64 64-64c35.328125.039062 63.960938 28.671875 64 64zm-16 0c0-26.507812-21.492187-48-48-48-26.511718 0-48 21.492188-48 48s21.488282 48 48 48c26.5-.027344 47.972656-21.5 48-48zm-24-8h-16v-16c0-4.417969-3.582031-8-8-8-4.417968 0-8 3.582031-8 8v24c0 4.417969 3.582032 8 8 8h24c4.417969 0 8-3.582031 8-8s-3.582031-8-8-8zm-8 280v16c.058594 38.039062-26.71875 70.84375-64 78.398438v9.601562c0 13.253906-10.746094 24-24 24s-24-10.746094-24-24v-8h-32v8c0 13.253906-10.746094 24-24 24s-24-10.746094-24-24v-9.601562c-19.152344-3.921876-36.199218-14.738282-47.902344-30.398438h-16.097656c-13.253906 0-24-10.746094-24-24v-24c0-4.417969 3.582032-8 8-8h16v-8c0-6.101562.703125-12.179688 2.097656-18.121094-7.886718-4.503906-14.90625-10.378906-20.730468-17.351562l-19.511719-23.398438c-1.992187-2.386718-2.421875-5.707031-1.105469-8.519531s4.144532-4.609375 7.25-4.609375h77.222656c10.285157-4.992188 21.535157-7.6875 32.96875-7.894531-21.085937-26.140625-18.382812-64.128907 6.195313-87.019531 24.574219-22.886719 62.660156-22.886719 87.234375 0 24.578125 22.890624 27.28125 60.878906 6.195312 87.019531 43.417969 1.015625 78.109376 36.464843 78.183594 79.894531zm-176-120c0 26.507812 21.488282 48 48 48 26.507813 0 48-21.492188 48-48s-21.492187-48-48-48c-26.5.027344-47.972656 21.5-48 48zm78.910156 56c-19.226562 10.667969-42.59375 10.667969-61.824218 0h-9.085938v16h80v-16zm81.089844 64c-.054687-32.222656-24.035156-59.390625-56-63.449219v23.449219c0 4.417969-3.582031 8-8 8h-96c-4.417968 0-8-3.582031-8-8v-23.480469c-7.40625.929688-14.59375 3.160157-21.222656 6.59375-1.132812.582031-2.390625.886719-3.664062.886719h-62.035157l8.585938 10.289062c5.773437 6.910157 13.019531 12.445313 21.207031 16.199219 3.691406 1.691407 5.53125 5.875 4.28125 9.734375-2.085938 6.386719-3.148438 13.058594-3.152344 19.777344v16c0 4.417969-3.582031 8-8 8h-16v16c0 4.417969 3.582032 8 8 8h20.214844c2.667969-.003906 5.160156 1.324219 6.648438 3.535156 10.445312 15.683594 27.289062 25.945313 46.015624 28.039063 4.054688.449219 7.121094 3.875 7.121094 7.953125v16.472656c0 4.417969 3.582032 8 8 8 4.417969 0 8-3.582031 8-8v-16c0-4.417969 3.582032-8 8-8h48c4.417969 0 8 3.582031 8 8v16c0 4.417969 3.582032 8 8 8 4.417969 0 8-3.582031 8-8v-16.472656c0-4.078125 3.066406-7.503906 7.121094-7.953125 29.179688-3.21875 52.398438-25.941407 56.246094-55.046875-7.269532 4.535156-15.65625 6.953125-24.222656 6.984375-2.007813 0-4.015626-.121094-6.007813-.367188-12.574219-1.558593-23.96875-8.183593-31.535156-18.34375-2.652344-3.535156-1.9375-8.550781 1.597656-11.199219 3.535156-2.652343 8.550781-1.9375 11.199219 1.597657 4.992187 6.667969 12.472656 11.027343 20.734375 12.082031s16.597656-1.285156 23.105469-6.480469l5.761718-4.640625zm-184-24c-4.417968 0-8 3.582031-8 8v8c0 4.417969 3.582032 8 8 8 4.417969 0 8-3.582031 8-8v-8c0-4.417969-3.582031-8-8-8zm0 0"
     fill="url(#a)"
     id="path7" />
</svg>
